<mxfile host="app.diagrams.net" modified="2023-06-21T08:30:35.261Z" agent="Mozilla/5.0 (Macintosh; Intel Mac OS X 10_15_7) AppleWebKit/537.36 (KHTML, like Gecko) Chrome/114.0.0.0 Safari/537.36" etag="vAOK-tlk7W22lcYFBsxo" version="21.5.0" type="github" pages="3">
  <diagram id="w65AgEcsbwL5PO4EomMU" name="Page-1">
    <mxGraphModel dx="1434" dy="828" grid="1" gridSize="10" guides="1" tooltips="1" connect="1" arrows="1" fold="1" page="1" pageScale="1" pageWidth="850" pageHeight="1100" math="0" shadow="0">
      <root>
        <mxCell id="0" />
        <mxCell id="1" parent="0" />
        <mxCell id="RWHLB6M2Nt2bu9l5WMri-109" value="" style="rounded=0;whiteSpace=wrap;html=1;dashed=1;" parent="1" vertex="1">
          <mxGeometry x="50" y="50" width="1600" height="960" as="geometry" />
        </mxCell>
        <mxCell id="RWHLB6M2Nt2bu9l5WMri-68" value="" style="rounded=0;whiteSpace=wrap;html=1;fillColor=#dae8fc;strokeColor=#6c8ebf;" parent="1" vertex="1">
          <mxGeometry x="1160" y="498" width="370" height="78" as="geometry" />
        </mxCell>
        <mxCell id="RWHLB6M2Nt2bu9l5WMri-51" value="" style="rounded=0;whiteSpace=wrap;html=1;fillColor=#dae8fc;strokeColor=#6c8ebf;" parent="1" vertex="1">
          <mxGeometry x="560" y="726" width="340" height="182" as="geometry" />
        </mxCell>
        <mxCell id="jkaa5wtrJsPc-l5MgYiC-1" value="Location" style="swimlane;fontStyle=0;childLayout=stackLayout;horizontal=1;startSize=26;fillColor=#d5e8d4;horizontalStack=0;resizeParent=1;resizeParentMax=0;resizeLast=0;collapsible=1;marginBottom=0;strokeColor=#82b366;" parent="1" vertex="1">
          <mxGeometry x="950" y="576" width="140" height="182" as="geometry" />
        </mxCell>
        <mxCell id="jkaa5wtrJsPc-l5MgYiC-2" value="+ id: int" style="text;strokeColor=#666666;fillColor=#f5f5f5;align=left;verticalAlign=top;spacingLeft=4;spacingRight=4;overflow=hidden;rotatable=0;points=[[0,0.5],[1,0.5]];portConstraint=eastwest;fontColor=#333333;" parent="jkaa5wtrJsPc-l5MgYiC-1" vertex="1">
          <mxGeometry y="26" width="140" height="26" as="geometry" />
        </mxCell>
        <mxCell id="jkaa5wtrJsPc-l5MgYiC-3" value="+ created: datetime" style="text;strokeColor=#666666;fillColor=#f5f5f5;align=left;verticalAlign=top;spacingLeft=4;spacingRight=4;overflow=hidden;rotatable=0;points=[[0,0.5],[1,0.5]];portConstraint=eastwest;fontColor=#333333;" parent="jkaa5wtrJsPc-l5MgYiC-1" vertex="1">
          <mxGeometry y="52" width="140" height="26" as="geometry" />
        </mxCell>
        <mxCell id="jkaa5wtrJsPc-l5MgYiC-5" value="+ updated: datetime" style="text;strokeColor=#666666;fillColor=#f5f5f5;align=left;verticalAlign=top;spacingLeft=4;spacingRight=4;overflow=hidden;rotatable=0;points=[[0,0.5],[1,0.5]];portConstraint=eastwest;fontColor=#333333;" parent="jkaa5wtrJsPc-l5MgYiC-1" vertex="1">
          <mxGeometry y="78" width="140" height="26" as="geometry" />
        </mxCell>
        <mxCell id="jkaa5wtrJsPc-l5MgYiC-7" value="+ city: str" style="text;strokeColor=#d6b656;fillColor=#fff2cc;align=left;verticalAlign=top;spacingLeft=4;spacingRight=4;overflow=hidden;rotatable=0;points=[[0,0.5],[1,0.5]];portConstraint=eastwest;" parent="jkaa5wtrJsPc-l5MgYiC-1" vertex="1">
          <mxGeometry y="104" width="140" height="26" as="geometry" />
        </mxCell>
        <mxCell id="jkaa5wtrJsPc-l5MgYiC-6" value="+ state: str, nullable" style="text;strokeColor=#d6b656;fillColor=#fff2cc;align=left;verticalAlign=top;spacingLeft=4;spacingRight=4;overflow=hidden;rotatable=0;points=[[0,0.5],[1,0.5]];portConstraint=eastwest;" parent="jkaa5wtrJsPc-l5MgYiC-1" vertex="1">
          <mxGeometry y="130" width="140" height="26" as="geometry" />
        </mxCell>
        <mxCell id="jkaa5wtrJsPc-l5MgYiC-4" value="+ country: str" style="text;strokeColor=#d6b656;fillColor=#fff2cc;align=left;verticalAlign=top;spacingLeft=4;spacingRight=4;overflow=hidden;rotatable=0;points=[[0,0.5],[1,0.5]];portConstraint=eastwest;" parent="jkaa5wtrJsPc-l5MgYiC-1" vertex="1">
          <mxGeometry y="156" width="140" height="26" as="geometry" />
        </mxCell>
        <mxCell id="jkaa5wtrJsPc-l5MgYiC-8" value="Recruiter" style="swimlane;fontStyle=0;childLayout=stackLayout;horizontal=1;startSize=26;fillColor=#d5e8d4;horizontalStack=0;resizeParent=1;resizeParentMax=0;resizeLast=0;collapsible=1;marginBottom=0;strokeColor=#82b366;" parent="1" vertex="1">
          <mxGeometry x="100" y="450" width="180" height="208" as="geometry" />
        </mxCell>
        <mxCell id="jkaa5wtrJsPc-l5MgYiC-9" value="+ id: int" style="text;strokeColor=#666666;fillColor=#f5f5f5;align=left;verticalAlign=top;spacingLeft=4;spacingRight=4;overflow=hidden;rotatable=0;points=[[0,0.5],[1,0.5]];portConstraint=eastwest;fontColor=#333333;" parent="jkaa5wtrJsPc-l5MgYiC-8" vertex="1">
          <mxGeometry y="26" width="180" height="26" as="geometry" />
        </mxCell>
        <mxCell id="jkaa5wtrJsPc-l5MgYiC-10" value="+ created: datetime" style="text;strokeColor=#666666;fillColor=#f5f5f5;align=left;verticalAlign=top;spacingLeft=4;spacingRight=4;overflow=hidden;rotatable=0;points=[[0,0.5],[1,0.5]];portConstraint=eastwest;fontColor=#333333;" parent="jkaa5wtrJsPc-l5MgYiC-8" vertex="1">
          <mxGeometry y="52" width="180" height="26" as="geometry" />
        </mxCell>
        <mxCell id="jkaa5wtrJsPc-l5MgYiC-11" value="+ updated: datetime" style="text;strokeColor=#666666;fillColor=#f5f5f5;align=left;verticalAlign=top;spacingLeft=4;spacingRight=4;overflow=hidden;rotatable=0;points=[[0,0.5],[1,0.5]];portConstraint=eastwest;fontColor=#333333;" parent="jkaa5wtrJsPc-l5MgYiC-8" vertex="1">
          <mxGeometry y="78" width="180" height="26" as="geometry" />
        </mxCell>
        <mxCell id="jkaa5wtrJsPc-l5MgYiC-12" value="+ name: str" style="text;strokeColor=#d6b656;fillColor=#fff2cc;align=left;verticalAlign=top;spacingLeft=4;spacingRight=4;overflow=hidden;rotatable=0;points=[[0,0.5],[1,0.5]];portConstraint=eastwest;" parent="jkaa5wtrJsPc-l5MgYiC-8" vertex="1">
          <mxGeometry y="104" width="180" height="26" as="geometry" />
        </mxCell>
        <mxCell id="jkaa5wtrJsPc-l5MgYiC-14" value="+ email: str" style="text;strokeColor=#d6b656;fillColor=#fff2cc;align=left;verticalAlign=top;spacingLeft=4;spacingRight=4;overflow=hidden;rotatable=0;points=[[0,0.5],[1,0.5]];portConstraint=eastwest;" parent="jkaa5wtrJsPc-l5MgYiC-8" vertex="1">
          <mxGeometry y="130" width="180" height="26" as="geometry" />
        </mxCell>
        <mxCell id="jkaa5wtrJsPc-l5MgYiC-16" value="+ hirer_id: int, FK=hirer.id" style="text;strokeColor=#d79b00;fillColor=#ffe6cc;align=left;verticalAlign=top;spacingLeft=4;spacingRight=4;overflow=hidden;rotatable=0;points=[[0,0.5],[1,0.5]];portConstraint=eastwest;" parent="jkaa5wtrJsPc-l5MgYiC-8" vertex="1">
          <mxGeometry y="156" width="180" height="26" as="geometry" />
        </mxCell>
        <mxCell id="jkaa5wtrJsPc-l5MgYiC-18" value="+ hirer: relationship(Hirer)" style="text;strokeColor=#6c8ebf;fillColor=#dae8fc;align=left;verticalAlign=top;spacingLeft=4;spacingRight=4;overflow=hidden;rotatable=0;points=[[0,0.5],[1,0.5]];portConstraint=eastwest;" parent="jkaa5wtrJsPc-l5MgYiC-8" vertex="1">
          <mxGeometry y="182" width="180" height="26" as="geometry" />
        </mxCell>
        <mxCell id="jkaa5wtrJsPc-l5MgYiC-19" value="Job" style="swimlane;fontStyle=0;childLayout=stackLayout;horizontal=1;startSize=26;fillColor=#d5e8d4;horizontalStack=0;resizeParent=1;resizeParentMax=0;resizeLast=0;collapsible=1;marginBottom=0;strokeColor=#82b366;" parent="1" vertex="1">
          <mxGeometry x="560" y="310" width="220" height="416" as="geometry">
            <mxRectangle x="720" width="60" height="30" as="alternateBounds" />
          </mxGeometry>
        </mxCell>
        <mxCell id="jkaa5wtrJsPc-l5MgYiC-20" value="+ id: int" style="text;strokeColor=#666666;fillColor=#f5f5f5;align=left;verticalAlign=top;spacingLeft=4;spacingRight=4;overflow=hidden;rotatable=0;points=[[0,0.5],[1,0.5]];portConstraint=eastwest;fontColor=#333333;" parent="jkaa5wtrJsPc-l5MgYiC-19" vertex="1">
          <mxGeometry y="26" width="220" height="26" as="geometry" />
        </mxCell>
        <mxCell id="jkaa5wtrJsPc-l5MgYiC-21" value="+ created: datetime" style="text;strokeColor=#666666;fillColor=#f5f5f5;align=left;verticalAlign=top;spacingLeft=4;spacingRight=4;overflow=hidden;rotatable=0;points=[[0,0.5],[1,0.5]];portConstraint=eastwest;fontColor=#333333;" parent="jkaa5wtrJsPc-l5MgYiC-19" vertex="1">
          <mxGeometry y="52" width="220" height="26" as="geometry" />
        </mxCell>
        <mxCell id="jkaa5wtrJsPc-l5MgYiC-22" value="+ updated: datetime" style="text;strokeColor=#666666;fillColor=#f5f5f5;align=left;verticalAlign=top;spacingLeft=4;spacingRight=4;overflow=hidden;rotatable=0;points=[[0,0.5],[1,0.5]];portConstraint=eastwest;fontColor=#333333;" parent="jkaa5wtrJsPc-l5MgYiC-19" vertex="1">
          <mxGeometry y="78" width="220" height="26" as="geometry" />
        </mxCell>
        <mxCell id="jkaa5wtrJsPc-l5MgYiC-23" value="+ hirer_id: int, FK=hirer.id" style="text;strokeColor=#d79b00;fillColor=#ffe6cc;align=left;verticalAlign=top;spacingLeft=4;spacingRight=4;overflow=hidden;rotatable=0;points=[[0,0.5],[1,0.5]];portConstraint=eastwest;" parent="jkaa5wtrJsPc-l5MgYiC-19" vertex="1">
          <mxGeometry y="104" width="220" height="26" as="geometry" />
        </mxCell>
        <mxCell id="jkaa5wtrJsPc-l5MgYiC-24" value="+ recruiter_id: int, FK=recruiter.id" style="text;strokeColor=#d79b00;fillColor=#ffe6cc;align=left;verticalAlign=top;spacingLeft=4;spacingRight=4;overflow=hidden;rotatable=0;points=[[0,0.5],[1,0.5]];portConstraint=eastwest;" parent="jkaa5wtrJsPc-l5MgYiC-19" vertex="1">
          <mxGeometry y="130" width="220" height="26" as="geometry" />
        </mxCell>
        <mxCell id="jkaa5wtrJsPc-l5MgYiC-25" value="+ title: str" style="text;strokeColor=#d6b656;fillColor=#fff2cc;align=left;verticalAlign=top;spacingLeft=4;spacingRight=4;overflow=hidden;rotatable=0;points=[[0,0.5],[1,0.5]];portConstraint=eastwest;" parent="jkaa5wtrJsPc-l5MgYiC-19" vertex="1">
          <mxGeometry y="156" width="220" height="26" as="geometry" />
        </mxCell>
        <mxCell id="jkaa5wtrJsPc-l5MgYiC-26" value="+ rate: float" style="text;strokeColor=#d6b656;fillColor=#fff2cc;align=left;verticalAlign=top;spacingLeft=4;spacingRight=4;overflow=hidden;rotatable=0;points=[[0,0.5],[1,0.5]];portConstraint=eastwest;" parent="jkaa5wtrJsPc-l5MgYiC-19" vertex="1">
          <mxGeometry y="182" width="220" height="26" as="geometry" />
        </mxCell>
        <mxCell id="jkaa5wtrJsPc-l5MgYiC-28" value="+ rate_per_time_unit: str" style="text;strokeColor=#d6b656;fillColor=#fff2cc;align=left;verticalAlign=top;spacingLeft=4;spacingRight=4;overflow=hidden;rotatable=0;points=[[0,0.5],[1,0.5]];portConstraint=eastwest;" parent="jkaa5wtrJsPc-l5MgYiC-19" vertex="1">
          <mxGeometry y="208" width="220" height="26" as="geometry" />
        </mxCell>
        <mxCell id="RWHLB6M2Nt2bu9l5WMri-14" value="+ rate_annualized: float" style="text;strokeColor=#d6b656;fillColor=#fff2cc;align=left;verticalAlign=top;spacingLeft=4;spacingRight=4;overflow=hidden;rotatable=0;points=[[0,0.5],[1,0.5]];portConstraint=eastwest;" parent="jkaa5wtrJsPc-l5MgYiC-19" vertex="1">
          <mxGeometry y="234" width="220" height="26" as="geometry" />
        </mxCell>
        <mxCell id="RWHLB6M2Nt2bu9l5WMri-17" value="+ benefits: str" style="text;strokeColor=#d6b656;fillColor=#fff2cc;align=left;verticalAlign=top;spacingLeft=4;spacingRight=4;overflow=hidden;rotatable=0;points=[[0,0.5],[1,0.5]];portConstraint=eastwest;" parent="jkaa5wtrJsPc-l5MgYiC-19" vertex="1">
          <mxGeometry y="260" width="220" height="26" as="geometry" />
        </mxCell>
        <mxCell id="RWHLB6M2Nt2bu9l5WMri-15" value="+ contract_type: str" style="text;strokeColor=#d6b656;fillColor=#fff2cc;align=left;verticalAlign=top;spacingLeft=4;spacingRight=4;overflow=hidden;rotatable=0;points=[[0,0.5],[1,0.5]];portConstraint=eastwest;" parent="jkaa5wtrJsPc-l5MgYiC-19" vertex="1">
          <mxGeometry y="286" width="220" height="26" as="geometry" />
        </mxCell>
        <mxCell id="RWHLB6M2Nt2bu9l5WMri-18" value="+ description: str" style="text;strokeColor=#d6b656;fillColor=#fff2cc;align=left;verticalAlign=top;spacingLeft=4;spacingRight=4;overflow=hidden;rotatable=0;points=[[0,0.5],[1,0.5]];portConstraint=eastwest;" parent="jkaa5wtrJsPc-l5MgYiC-19" vertex="1">
          <mxGeometry y="312" width="220" height="26" as="geometry" />
        </mxCell>
        <mxCell id="RWHLB6M2Nt2bu9l5WMri-19" value="+ date_posted: datetime" style="text;strokeColor=#d6b656;fillColor=#fff2cc;align=left;verticalAlign=top;spacingLeft=4;spacingRight=4;overflow=hidden;rotatable=0;points=[[0,0.5],[1,0.5]];portConstraint=eastwest;" parent="jkaa5wtrJsPc-l5MgYiC-19" vertex="1">
          <mxGeometry y="338" width="220" height="26" as="geometry" />
        </mxCell>
        <mxCell id="RWHLB6M2Nt2bu9l5WMri-20" value="+ live_until: str" style="text;strokeColor=#d6b656;fillColor=#fff2cc;align=left;verticalAlign=top;spacingLeft=4;spacingRight=4;overflow=hidden;rotatable=0;points=[[0,0.5],[1,0.5]];portConstraint=eastwest;" parent="jkaa5wtrJsPc-l5MgYiC-19" vertex="1">
          <mxGeometry y="364" width="220" height="26" as="geometry" />
        </mxCell>
        <mxCell id="RWHLB6M2Nt2bu9l5WMri-21" value="+ location_id: int, FK=location.id" style="text;strokeColor=#d79b00;fillColor=#ffe6cc;align=left;verticalAlign=top;spacingLeft=4;spacingRight=4;overflow=hidden;rotatable=0;points=[[0,0.5],[1,0.5]];portConstraint=eastwest;" parent="jkaa5wtrJsPc-l5MgYiC-19" vertex="1">
          <mxGeometry y="390" width="220" height="26" as="geometry" />
        </mxCell>
        <mxCell id="jkaa5wtrJsPc-l5MgYiC-29" value="Hirer" style="swimlane;fontStyle=0;childLayout=stackLayout;horizontal=1;startSize=26;fillColor=#d5e8d4;horizontalStack=0;resizeParent=1;resizeParentMax=0;resizeLast=0;collapsible=1;marginBottom=0;strokeColor=#82b366;" parent="1" vertex="1">
          <mxGeometry x="360" y="400" width="140" height="156" as="geometry" />
        </mxCell>
        <mxCell id="jkaa5wtrJsPc-l5MgYiC-30" value="+ id: int" style="text;strokeColor=#666666;fillColor=#f5f5f5;align=left;verticalAlign=top;spacingLeft=4;spacingRight=4;overflow=hidden;rotatable=0;points=[[0,0.5],[1,0.5]];portConstraint=eastwest;fontColor=#333333;" parent="jkaa5wtrJsPc-l5MgYiC-29" vertex="1">
          <mxGeometry y="26" width="140" height="26" as="geometry" />
        </mxCell>
        <mxCell id="jkaa5wtrJsPc-l5MgYiC-31" value="+ created: datetime" style="text;strokeColor=#666666;fillColor=#f5f5f5;align=left;verticalAlign=top;spacingLeft=4;spacingRight=4;overflow=hidden;rotatable=0;points=[[0,0.5],[1,0.5]];portConstraint=eastwest;fontColor=#333333;" parent="jkaa5wtrJsPc-l5MgYiC-29" vertex="1">
          <mxGeometry y="52" width="140" height="26" as="geometry" />
        </mxCell>
        <mxCell id="jkaa5wtrJsPc-l5MgYiC-32" value="+ updated: datetime" style="text;strokeColor=#666666;fillColor=#f5f5f5;align=left;verticalAlign=top;spacingLeft=4;spacingRight=4;overflow=hidden;rotatable=0;points=[[0,0.5],[1,0.5]];portConstraint=eastwest;fontColor=#333333;" parent="jkaa5wtrJsPc-l5MgYiC-29" vertex="1">
          <mxGeometry y="78" width="140" height="26" as="geometry" />
        </mxCell>
        <mxCell id="jkaa5wtrJsPc-l5MgYiC-33" value="+ name: str" style="text;strokeColor=#d6b656;fillColor=#fff2cc;align=left;verticalAlign=top;spacingLeft=4;spacingRight=4;overflow=hidden;rotatable=0;points=[[0,0.5],[1,0.5]];portConstraint=eastwest;" parent="jkaa5wtrJsPc-l5MgYiC-29" vertex="1">
          <mxGeometry y="104" width="140" height="26" as="geometry" />
        </mxCell>
        <mxCell id="jkaa5wtrJsPc-l5MgYiC-34" value="+ jobs: relationship(Job)" style="text;strokeColor=#6c8ebf;fillColor=#dae8fc;align=left;verticalAlign=top;spacingLeft=4;spacingRight=4;overflow=hidden;rotatable=0;points=[[0,0.5],[1,0.5]];portConstraint=eastwest;" parent="jkaa5wtrJsPc-l5MgYiC-29" vertex="1">
          <mxGeometry y="130" width="140" height="26" as="geometry" />
        </mxCell>
        <mxCell id="RWHLB6M2Nt2bu9l5WMri-1" value="Skill" style="swimlane;fontStyle=0;childLayout=stackLayout;horizontal=1;startSize=26;fillColor=#d5e8d4;horizontalStack=0;resizeParent=1;resizeParentMax=0;resizeLast=0;collapsible=1;marginBottom=0;strokeColor=#82b366;" parent="1" vertex="1">
          <mxGeometry x="1145" y="126" width="140" height="130" as="geometry" />
        </mxCell>
        <mxCell id="RWHLB6M2Nt2bu9l5WMri-2" value="+ id: int" style="text;strokeColor=#666666;fillColor=#f5f5f5;align=left;verticalAlign=top;spacingLeft=4;spacingRight=4;overflow=hidden;rotatable=0;points=[[0,0.5],[1,0.5]];portConstraint=eastwest;fontColor=#333333;" parent="RWHLB6M2Nt2bu9l5WMri-1" vertex="1">
          <mxGeometry y="26" width="140" height="26" as="geometry" />
        </mxCell>
        <mxCell id="RWHLB6M2Nt2bu9l5WMri-3" value="+ created: datetime" style="text;strokeColor=#666666;fillColor=#f5f5f5;align=left;verticalAlign=top;spacingLeft=4;spacingRight=4;overflow=hidden;rotatable=0;points=[[0,0.5],[1,0.5]];portConstraint=eastwest;fontColor=#333333;" parent="RWHLB6M2Nt2bu9l5WMri-1" vertex="1">
          <mxGeometry y="52" width="140" height="26" as="geometry" />
        </mxCell>
        <mxCell id="RWHLB6M2Nt2bu9l5WMri-4" value="+ updated: datetime" style="text;strokeColor=#666666;fillColor=#f5f5f5;align=left;verticalAlign=top;spacingLeft=4;spacingRight=4;overflow=hidden;rotatable=0;points=[[0,0.5],[1,0.5]];portConstraint=eastwest;fontColor=#333333;" parent="RWHLB6M2Nt2bu9l5WMri-1" vertex="1">
          <mxGeometry y="78" width="140" height="26" as="geometry" />
        </mxCell>
        <mxCell id="RWHLB6M2Nt2bu9l5WMri-5" value="+ name: str" style="text;strokeColor=#d6b656;fillColor=#fff2cc;align=left;verticalAlign=top;spacingLeft=4;spacingRight=4;overflow=hidden;rotatable=0;points=[[0,0.5],[1,0.5]];portConstraint=eastwest;" parent="RWHLB6M2Nt2bu9l5WMri-1" vertex="1">
          <mxGeometry y="104" width="140" height="26" as="geometry" />
        </mxCell>
        <mxCell id="RWHLB6M2Nt2bu9l5WMri-44" value="+ applications: relationship(JobApplication)" style="text;strokeColor=none;fillColor=none;align=left;verticalAlign=top;spacingLeft=4;spacingRight=4;overflow=hidden;rotatable=0;points=[[0,0.5],[1,0.5]];portConstraint=eastwest;" parent="1" vertex="1">
          <mxGeometry x="560" y="726" width="330" height="26" as="geometry" />
        </mxCell>
        <mxCell id="RWHLB6M2Nt2bu9l5WMri-45" value="+ hirer: relationship(Hirer)" style="text;strokeColor=none;fillColor=none;align=left;verticalAlign=top;spacingLeft=4;spacingRight=4;overflow=hidden;rotatable=0;points=[[0,0.5],[1,0.5]];portConstraint=eastwest;" parent="1" vertex="1">
          <mxGeometry x="560" y="752" width="330" height="26" as="geometry" />
        </mxCell>
        <mxCell id="RWHLB6M2Nt2bu9l5WMri-46" value="+ recruiter: relationship(Recruiter)" style="text;strokeColor=none;fillColor=none;align=left;verticalAlign=top;spacingLeft=4;spacingRight=4;overflow=hidden;rotatable=0;points=[[0,0.5],[1,0.5]];portConstraint=eastwest;" parent="1" vertex="1">
          <mxGeometry x="560" y="778" width="330" height="26" as="geometry" />
        </mxCell>
        <mxCell id="RWHLB6M2Nt2bu9l5WMri-47" value="+ rate_currency: relationship(Currency)" style="text;strokeColor=none;fillColor=none;align=left;verticalAlign=top;spacingLeft=4;spacingRight=4;overflow=hidden;rotatable=0;points=[[0,0.5],[1,0.5]];portConstraint=eastwest;" parent="1" vertex="1">
          <mxGeometry x="560" y="804" width="330" height="26" as="geometry" />
        </mxCell>
        <mxCell id="RWHLB6M2Nt2bu9l5WMri-48" value="+ learning_budget_currency: relationship(Currency)" style="text;strokeColor=none;fillColor=none;align=left;verticalAlign=top;spacingLeft=4;spacingRight=4;overflow=hidden;rotatable=0;points=[[0,0.5],[1,0.5]];portConstraint=eastwest;" parent="1" vertex="1">
          <mxGeometry x="560" y="830" width="330" height="26" as="geometry" />
        </mxCell>
        <mxCell id="RWHLB6M2Nt2bu9l5WMri-49" value="+ location: relationship(Location)" style="text;strokeColor=none;fillColor=none;align=left;verticalAlign=top;spacingLeft=4;spacingRight=4;overflow=hidden;rotatable=0;points=[[0,0.5],[1,0.5]];portConstraint=eastwest;" parent="1" vertex="1">
          <mxGeometry x="560" y="856" width="330" height="26" as="geometry" />
        </mxCell>
        <mxCell id="RWHLB6M2Nt2bu9l5WMri-50" value="+ skills: relationship(Skill, secondary=skills_job_association)" style="text;strokeColor=none;fillColor=none;align=left;verticalAlign=top;spacingLeft=4;spacingRight=4;overflow=hidden;rotatable=0;points=[[0,0.5],[1,0.5]];portConstraint=eastwest;" parent="1" vertex="1">
          <mxGeometry x="560" y="882" width="330" height="26" as="geometry" />
        </mxCell>
        <mxCell id="RWHLB6M2Nt2bu9l5WMri-52" value="Candidate" style="swimlane;fontStyle=0;childLayout=stackLayout;horizontal=1;startSize=26;fillColor=#d5e8d4;horizontalStack=0;resizeParent=1;resizeParentMax=0;resizeLast=0;collapsible=1;marginBottom=0;strokeColor=#82b366;" parent="1" vertex="1">
          <mxGeometry x="1160" y="290" width="190" height="208" as="geometry" />
        </mxCell>
        <mxCell id="RWHLB6M2Nt2bu9l5WMri-53" value="+ id: int" style="text;strokeColor=#666666;fillColor=#f5f5f5;align=left;verticalAlign=top;spacingLeft=4;spacingRight=4;overflow=hidden;rotatable=0;points=[[0,0.5],[1,0.5]];portConstraint=eastwest;fontColor=#333333;" parent="RWHLB6M2Nt2bu9l5WMri-52" vertex="1">
          <mxGeometry y="26" width="190" height="26" as="geometry" />
        </mxCell>
        <mxCell id="RWHLB6M2Nt2bu9l5WMri-54" value="+ created: datetime" style="text;strokeColor=#666666;fillColor=#f5f5f5;align=left;verticalAlign=top;spacingLeft=4;spacingRight=4;overflow=hidden;rotatable=0;points=[[0,0.5],[1,0.5]];portConstraint=eastwest;fontColor=#333333;" parent="RWHLB6M2Nt2bu9l5WMri-52" vertex="1">
          <mxGeometry y="52" width="190" height="26" as="geometry" />
        </mxCell>
        <mxCell id="RWHLB6M2Nt2bu9l5WMri-55" value="+ updated: datetime" style="text;strokeColor=#666666;fillColor=#f5f5f5;align=left;verticalAlign=top;spacingLeft=4;spacingRight=4;overflow=hidden;rotatable=0;points=[[0,0.5],[1,0.5]];portConstraint=eastwest;fontColor=#333333;" parent="RWHLB6M2Nt2bu9l5WMri-52" vertex="1">
          <mxGeometry y="78" width="190" height="26" as="geometry" />
        </mxCell>
        <mxCell id="RWHLB6M2Nt2bu9l5WMri-56" value="+ name: str" style="text;strokeColor=#d6b656;fillColor=#fff2cc;align=left;verticalAlign=top;spacingLeft=4;spacingRight=4;overflow=hidden;rotatable=0;points=[[0,0.5],[1,0.5]];portConstraint=eastwest;" parent="RWHLB6M2Nt2bu9l5WMri-52" vertex="1">
          <mxGeometry y="104" width="190" height="26" as="geometry" />
        </mxCell>
        <mxCell id="RWHLB6M2Nt2bu9l5WMri-58" value="+ email: str" style="text;strokeColor=#d6b656;fillColor=#fff2cc;align=left;verticalAlign=top;spacingLeft=4;spacingRight=4;overflow=hidden;rotatable=0;points=[[0,0.5],[1,0.5]];portConstraint=eastwest;" parent="RWHLB6M2Nt2bu9l5WMri-52" vertex="1">
          <mxGeometry y="130" width="190" height="26" as="geometry" />
        </mxCell>
        <mxCell id="RWHLB6M2Nt2bu9l5WMri-60" value="+ cv: str, nullable" style="text;strokeColor=#666666;fillColor=#f5f5f5;align=left;verticalAlign=top;spacingLeft=4;spacingRight=4;overflow=hidden;rotatable=0;points=[[0,0.5],[1,0.5]];portConstraint=eastwest;fontColor=#333333;" parent="RWHLB6M2Nt2bu9l5WMri-52" vertex="1">
          <mxGeometry y="156" width="190" height="26" as="geometry" />
        </mxCell>
        <mxCell id="RWHLB6M2Nt2bu9l5WMri-61" value="+ location_id: int, FK=location.id" style="text;strokeColor=#d79b00;fillColor=#ffe6cc;align=left;verticalAlign=top;spacingLeft=4;spacingRight=4;overflow=hidden;rotatable=0;points=[[0,0.5],[1,0.5]];portConstraint=eastwest;" parent="RWHLB6M2Nt2bu9l5WMri-52" vertex="1">
          <mxGeometry y="182" width="190" height="26" as="geometry" />
        </mxCell>
        <mxCell id="RWHLB6M2Nt2bu9l5WMri-65" value="+ applications: relationship(JobApplication)" style="text;strokeColor=none;fillColor=none;align=left;verticalAlign=top;spacingLeft=4;spacingRight=4;overflow=hidden;rotatable=0;points=[[0,0.5],[1,0.5]];portConstraint=eastwest;" parent="1" vertex="1">
          <mxGeometry x="1160" y="498" width="240" height="26" as="geometry" />
        </mxCell>
        <mxCell id="RWHLB6M2Nt2bu9l5WMri-66" value="+ location: relationship(Location)" style="text;strokeColor=none;fillColor=none;align=left;verticalAlign=top;spacingLeft=4;spacingRight=4;overflow=hidden;rotatable=0;points=[[0,0.5],[1,0.5]];portConstraint=eastwest;" parent="1" vertex="1">
          <mxGeometry x="1160" y="524" width="260" height="26" as="geometry" />
        </mxCell>
        <mxCell id="RWHLB6M2Nt2bu9l5WMri-67" value="+ skills: relationship(Skill, secondary=skills_candidate_association)" style="text;strokeColor=none;fillColor=none;align=left;verticalAlign=top;spacingLeft=4;spacingRight=4;overflow=hidden;rotatable=0;points=[[0,0.5],[1,0.5]];portConstraint=eastwest;" parent="1" vertex="1">
          <mxGeometry x="1160" y="550" width="370" height="26" as="geometry" />
        </mxCell>
        <mxCell id="RWHLB6M2Nt2bu9l5WMri-69" value="JobApplication" style="swimlane;fontStyle=0;childLayout=stackLayout;horizontal=1;startSize=26;fillColor=#d5e8d4;horizontalStack=0;resizeParent=1;resizeParentMax=0;resizeLast=0;collapsible=1;marginBottom=0;strokeColor=#82b366;" parent="1" vertex="1">
          <mxGeometry x="860" y="300" width="210" height="208" as="geometry" />
        </mxCell>
        <mxCell id="RWHLB6M2Nt2bu9l5WMri-70" value="+ id: int" style="text;strokeColor=#666666;fillColor=#f5f5f5;align=left;verticalAlign=top;spacingLeft=4;spacingRight=4;overflow=hidden;rotatable=0;points=[[0,0.5],[1,0.5]];portConstraint=eastwest;fontColor=#333333;" parent="RWHLB6M2Nt2bu9l5WMri-69" vertex="1">
          <mxGeometry y="26" width="210" height="26" as="geometry" />
        </mxCell>
        <mxCell id="RWHLB6M2Nt2bu9l5WMri-71" value="+ created: datetime" style="text;strokeColor=#666666;fillColor=#f5f5f5;align=left;verticalAlign=top;spacingLeft=4;spacingRight=4;overflow=hidden;rotatable=0;points=[[0,0.5],[1,0.5]];portConstraint=eastwest;fontColor=#333333;" parent="RWHLB6M2Nt2bu9l5WMri-69" vertex="1">
          <mxGeometry y="52" width="210" height="26" as="geometry" />
        </mxCell>
        <mxCell id="RWHLB6M2Nt2bu9l5WMri-72" value="+ updated: datetime" style="text;strokeColor=#666666;fillColor=#f5f5f5;align=left;verticalAlign=top;spacingLeft=4;spacingRight=4;overflow=hidden;rotatable=0;points=[[0,0.5],[1,0.5]];portConstraint=eastwest;fontColor=#333333;" parent="RWHLB6M2Nt2bu9l5WMri-69" vertex="1">
          <mxGeometry y="78" width="210" height="26" as="geometry" />
        </mxCell>
        <mxCell id="RWHLB6M2Nt2bu9l5WMri-73" value="+ candidate_id: int, FK=candidate.id" style="text;strokeColor=#d79b00;fillColor=#ffe6cc;align=left;verticalAlign=top;spacingLeft=4;spacingRight=4;overflow=hidden;rotatable=0;points=[[0,0.5],[1,0.5]];portConstraint=eastwest;" parent="RWHLB6M2Nt2bu9l5WMri-69" vertex="1">
          <mxGeometry y="104" width="210" height="26" as="geometry" />
        </mxCell>
        <mxCell id="RWHLB6M2Nt2bu9l5WMri-74" value="+ job_listing_id: int, FK=job.id" style="text;strokeColor=#d79b00;fillColor=#ffe6cc;align=left;verticalAlign=top;spacingLeft=4;spacingRight=4;overflow=hidden;rotatable=0;points=[[0,0.5],[1,0.5]];portConstraint=eastwest;" parent="RWHLB6M2Nt2bu9l5WMri-69" vertex="1">
          <mxGeometry y="130" width="210" height="26" as="geometry" />
        </mxCell>
        <mxCell id="RWHLB6M2Nt2bu9l5WMri-75" value="+ job_listing: relationship(Job)" style="text;strokeColor=#6c8ebf;fillColor=#dae8fc;align=left;verticalAlign=top;spacingLeft=4;spacingRight=4;overflow=hidden;rotatable=0;points=[[0,0.5],[1,0.5]];portConstraint=eastwest;" parent="RWHLB6M2Nt2bu9l5WMri-69" vertex="1">
          <mxGeometry y="156" width="210" height="26" as="geometry" />
        </mxCell>
        <mxCell id="RWHLB6M2Nt2bu9l5WMri-76" value="+ candidate: relationship(Candidate)" style="text;strokeColor=#6c8ebf;fillColor=#dae8fc;align=left;verticalAlign=top;spacingLeft=4;spacingRight=4;overflow=hidden;rotatable=0;points=[[0,0.5],[1,0.5]];portConstraint=eastwest;" parent="RWHLB6M2Nt2bu9l5WMri-69" vertex="1">
          <mxGeometry y="182" width="210" height="26" as="geometry" />
        </mxCell>
        <mxCell id="RWHLB6M2Nt2bu9l5WMri-77" value="skills_job_association" style="swimlane;fontStyle=0;childLayout=stackLayout;horizontal=1;startSize=26;fillColor=#e1d5e7;horizontalStack=0;resizeParent=1;resizeParentMax=0;resizeLast=0;collapsible=1;marginBottom=0;strokeColor=#9673a6;" parent="1" vertex="1">
          <mxGeometry x="910" y="100" width="140" height="78" as="geometry" />
        </mxCell>
        <mxCell id="RWHLB6M2Nt2bu9l5WMri-81" value="+ skill: int, FK=skill.id" style="text;strokeColor=#d79b00;fillColor=#ffe6cc;align=left;verticalAlign=top;spacingLeft=4;spacingRight=4;overflow=hidden;rotatable=0;points=[[0,0.5],[1,0.5]];portConstraint=eastwest;" parent="RWHLB6M2Nt2bu9l5WMri-77" vertex="1">
          <mxGeometry y="26" width="140" height="26" as="geometry" />
        </mxCell>
        <mxCell id="RWHLB6M2Nt2bu9l5WMri-82" value="+ job: int, FK=job.id" style="text;strokeColor=#d79b00;fillColor=#ffe6cc;align=left;verticalAlign=top;spacingLeft=4;spacingRight=4;overflow=hidden;rotatable=0;points=[[0,0.5],[1,0.5]];portConstraint=eastwest;" parent="RWHLB6M2Nt2bu9l5WMri-77" vertex="1">
          <mxGeometry y="52" width="140" height="26" as="geometry" />
        </mxCell>
        <mxCell id="RWHLB6M2Nt2bu9l5WMri-84" value="skills_candidate_association" style="swimlane;fontStyle=0;childLayout=stackLayout;horizontal=1;startSize=26;fillColor=#e1d5e7;horizontalStack=0;resizeParent=1;resizeParentMax=0;resizeLast=0;collapsible=1;marginBottom=0;strokeColor=#9673a6;" parent="1" vertex="1">
          <mxGeometry x="1390" y="134" width="200" height="104" as="geometry" />
        </mxCell>
        <mxCell id="RWHLB6M2Nt2bu9l5WMri-88" value="+ skill: int, FK=skill.id" style="text;strokeColor=#d79b00;fillColor=#ffe6cc;align=left;verticalAlign=top;spacingLeft=4;spacingRight=4;overflow=hidden;rotatable=0;points=[[0,0.5],[1,0.5]];portConstraint=eastwest;" parent="RWHLB6M2Nt2bu9l5WMri-84" vertex="1">
          <mxGeometry y="26" width="200" height="26" as="geometry" />
        </mxCell>
        <mxCell id="RWHLB6M2Nt2bu9l5WMri-89" value="+ candidate: int, FK=candidate.id" style="text;strokeColor=#d79b00;fillColor=#ffe6cc;align=left;verticalAlign=top;spacingLeft=4;spacingRight=4;overflow=hidden;rotatable=0;points=[[0,0.5],[1,0.5]];portConstraint=eastwest;" parent="RWHLB6M2Nt2bu9l5WMri-84" vertex="1">
          <mxGeometry y="52" width="200" height="26" as="geometry" />
        </mxCell>
        <mxCell id="RWHLB6M2Nt2bu9l5WMri-90" value="+ year_of_experience: int, nullable" style="text;strokeColor=#666666;fillColor=#f5f5f5;align=left;verticalAlign=top;spacingLeft=4;spacingRight=4;overflow=hidden;rotatable=0;points=[[0,0.5],[1,0.5]];portConstraint=eastwest;fontColor=#333333;" parent="RWHLB6M2Nt2bu9l5WMri-84" vertex="1">
          <mxGeometry y="78" width="200" height="26" as="geometry" />
        </mxCell>
        <mxCell id="RWHLB6M2Nt2bu9l5WMri-92" style="edgeStyle=orthogonalEdgeStyle;rounded=1;orthogonalLoop=1;jettySize=auto;html=1;entryX=0.001;entryY=0.083;entryDx=0;entryDy=0;entryPerimeter=0;" parent="1" source="jkaa5wtrJsPc-l5MgYiC-16" target="jkaa5wtrJsPc-l5MgYiC-29" edge="1">
          <mxGeometry relative="1" as="geometry" />
        </mxCell>
        <mxCell id="RWHLB6M2Nt2bu9l5WMri-93" style="edgeStyle=orthogonalEdgeStyle;rounded=1;orthogonalLoop=1;jettySize=auto;html=1;entryX=-0.006;entryY=0.022;entryDx=0;entryDy=0;entryPerimeter=0;dashed=1;" parent="1" source="jkaa5wtrJsPc-l5MgYiC-34" target="jkaa5wtrJsPc-l5MgYiC-19" edge="1">
          <mxGeometry relative="1" as="geometry">
            <Array as="points">
              <mxPoint x="540" y="543" />
              <mxPoint x="540" y="320" />
            </Array>
          </mxGeometry>
        </mxCell>
        <mxCell id="RWHLB6M2Nt2bu9l5WMri-94" style="edgeStyle=orthogonalEdgeStyle;rounded=1;orthogonalLoop=1;jettySize=auto;html=1;entryX=0.996;entryY=0.037;entryDx=0;entryDy=0;entryPerimeter=0;" parent="1" source="jkaa5wtrJsPc-l5MgYiC-23" target="jkaa5wtrJsPc-l5MgYiC-29" edge="1">
          <mxGeometry relative="1" as="geometry" />
        </mxCell>
        <mxCell id="RWHLB6M2Nt2bu9l5WMri-95" style="edgeStyle=orthogonalEdgeStyle;rounded=1;orthogonalLoop=1;jettySize=auto;html=1;entryX=1.01;entryY=0.055;entryDx=0;entryDy=0;entryPerimeter=0;" parent="1" source="jkaa5wtrJsPc-l5MgYiC-24" target="jkaa5wtrJsPc-l5MgYiC-8" edge="1">
          <mxGeometry relative="1" as="geometry">
            <Array as="points">
              <mxPoint x="520" y="453" />
              <mxPoint x="520" y="610" />
              <mxPoint x="420" y="610" />
              <mxPoint x="420" y="580" />
              <mxPoint x="300" y="580" />
              <mxPoint x="300" y="464" />
            </Array>
          </mxGeometry>
        </mxCell>
        <mxCell id="RWHLB6M2Nt2bu9l5WMri-99" style="edgeStyle=orthogonalEdgeStyle;rounded=1;orthogonalLoop=1;jettySize=auto;html=1;entryX=-0.007;entryY=0.049;entryDx=0;entryDy=0;entryPerimeter=0;" parent="1" source="RWHLB6M2Nt2bu9l5WMri-21" target="jkaa5wtrJsPc-l5MgYiC-1" edge="1">
          <mxGeometry relative="1" as="geometry" />
        </mxCell>
        <mxCell id="RWHLB6M2Nt2bu9l5WMri-101" style="edgeStyle=orthogonalEdgeStyle;rounded=1;orthogonalLoop=1;jettySize=auto;html=1;entryX=0.004;entryY=0.033;entryDx=0;entryDy=0;entryPerimeter=0;" parent="1" source="RWHLB6M2Nt2bu9l5WMri-73" target="RWHLB6M2Nt2bu9l5WMri-52" edge="1">
          <mxGeometry relative="1" as="geometry" />
        </mxCell>
        <mxCell id="RWHLB6M2Nt2bu9l5WMri-102" style="edgeStyle=orthogonalEdgeStyle;rounded=1;orthogonalLoop=1;jettySize=auto;html=1;entryX=1.005;entryY=0.022;entryDx=0;entryDy=0;entryPerimeter=0;" parent="1" source="RWHLB6M2Nt2bu9l5WMri-74" target="jkaa5wtrJsPc-l5MgYiC-19" edge="1">
          <mxGeometry relative="1" as="geometry">
            <Array as="points">
              <mxPoint x="820" y="443" />
              <mxPoint x="820" y="320" />
            </Array>
          </mxGeometry>
        </mxCell>
        <mxCell id="RWHLB6M2Nt2bu9l5WMri-103" style="edgeStyle=orthogonalEdgeStyle;rounded=1;orthogonalLoop=1;jettySize=auto;html=1;entryX=1.016;entryY=0.045;entryDx=0;entryDy=0;entryPerimeter=0;exitX=1;exitY=0.5;exitDx=0;exitDy=0;" parent="1" source="RWHLB6M2Nt2bu9l5WMri-89" target="RWHLB6M2Nt2bu9l5WMri-52" edge="1">
          <mxGeometry relative="1" as="geometry">
            <Array as="points">
              <mxPoint x="1600" y="199" />
              <mxPoint x="1600" y="251" />
              <mxPoint x="1370" y="251" />
              <mxPoint x="1370" y="302" />
            </Array>
            <mxPoint x="1490" y="240" as="sourcePoint" />
          </mxGeometry>
        </mxCell>
        <mxCell id="RWHLB6M2Nt2bu9l5WMri-104" style="edgeStyle=orthogonalEdgeStyle;rounded=1;orthogonalLoop=1;jettySize=auto;html=1;entryX=1.004;entryY=0.115;entryDx=0;entryDy=0;entryPerimeter=0;" parent="1" source="RWHLB6M2Nt2bu9l5WMri-88" target="RWHLB6M2Nt2bu9l5WMri-1" edge="1">
          <mxGeometry relative="1" as="geometry" />
        </mxCell>
        <mxCell id="RWHLB6M2Nt2bu9l5WMri-105" style="edgeStyle=orthogonalEdgeStyle;rounded=1;orthogonalLoop=1;jettySize=auto;html=1;entryX=-0.013;entryY=0.097;entryDx=0;entryDy=0;entryPerimeter=0;" parent="1" source="RWHLB6M2Nt2bu9l5WMri-81" target="RWHLB6M2Nt2bu9l5WMri-1" edge="1">
          <mxGeometry relative="1" as="geometry" />
        </mxCell>
        <mxCell id="RWHLB6M2Nt2bu9l5WMri-107" style="edgeStyle=orthogonalEdgeStyle;rounded=1;orthogonalLoop=1;jettySize=auto;html=1;entryX=0.5;entryY=0;entryDx=0;entryDy=0;" parent="1" source="RWHLB6M2Nt2bu9l5WMri-82" target="jkaa5wtrJsPc-l5MgYiC-19" edge="1">
          <mxGeometry relative="1" as="geometry" />
        </mxCell>
        <mxCell id="RWHLB6M2Nt2bu9l5WMri-108" style="edgeStyle=orthogonalEdgeStyle;rounded=1;orthogonalLoop=1;jettySize=auto;html=1;entryX=0.998;entryY=0.068;entryDx=0;entryDy=0;entryPerimeter=0;" parent="1" source="RWHLB6M2Nt2bu9l5WMri-61" target="jkaa5wtrJsPc-l5MgYiC-1" edge="1">
          <mxGeometry relative="1" as="geometry" />
        </mxCell>
      </root>
    </mxGraphModel>
  </diagram>
  <diagram id="zCy6M8z-xMAFYyihD25w" name="course model">
    <mxGraphModel dx="956" dy="552" grid="1" gridSize="10" guides="1" tooltips="1" connect="1" arrows="1" fold="1" page="1" pageScale="1" pageWidth="850" pageHeight="1100" math="0" shadow="0">
      <root>
        <mxCell id="0" />
        <mxCell id="1" parent="0" />
        <mxCell id="X9hgIbNBHiSHphT8_-n9-1" value="" style="rounded=0;whiteSpace=wrap;html=1;dashed=1;" parent="1" vertex="1">
          <mxGeometry x="190" y="70" width="1510" height="790" as="geometry" />
        </mxCell>
        <mxCell id="X9hgIbNBHiSHphT8_-n9-2" value="" style="rounded=0;whiteSpace=wrap;html=1;fillColor=#dae8fc;strokeColor=#6c8ebf;" parent="1" vertex="1">
          <mxGeometry x="1160" y="732" width="250" height="78" as="geometry" />
        </mxCell>
        <mxCell id="X9hgIbNBHiSHphT8_-n9-3" value="" style="rounded=0;whiteSpace=wrap;html=1;fillColor=#dae8fc;strokeColor=#6c8ebf;" parent="1" vertex="1">
          <mxGeometry x="560" y="727" width="340" height="108" as="geometry" />
        </mxCell>
        <mxCell id="X9hgIbNBHiSHphT8_-n9-4" value="Location" style="swimlane;fontStyle=0;childLayout=stackLayout;horizontal=1;startSize=26;fillColor=#d5e8d4;horizontalStack=0;resizeParent=1;resizeParentMax=0;resizeLast=0;collapsible=1;marginBottom=0;strokeColor=#82b366;" parent="1" vertex="1">
          <mxGeometry x="971" y="622" width="140" height="182" as="geometry" />
        </mxCell>
        <mxCell id="X9hgIbNBHiSHphT8_-n9-5" value="+ id: UUID" style="text;strokeColor=#666666;fillColor=#f5f5f5;align=left;verticalAlign=top;spacingLeft=4;spacingRight=4;overflow=hidden;rotatable=0;points=[[0,0.5],[1,0.5]];portConstraint=eastwest;fontColor=#333333;" parent="X9hgIbNBHiSHphT8_-n9-4" vertex="1">
          <mxGeometry y="26" width="140" height="26" as="geometry" />
        </mxCell>
        <mxCell id="X9hgIbNBHiSHphT8_-n9-6" value="+ created: datetime" style="text;strokeColor=#666666;fillColor=#f5f5f5;align=left;verticalAlign=top;spacingLeft=4;spacingRight=4;overflow=hidden;rotatable=0;points=[[0,0.5],[1,0.5]];portConstraint=eastwest;fontColor=#333333;" parent="X9hgIbNBHiSHphT8_-n9-4" vertex="1">
          <mxGeometry y="52" width="140" height="26" as="geometry" />
        </mxCell>
        <mxCell id="X9hgIbNBHiSHphT8_-n9-7" value="+ updated: datetime" style="text;strokeColor=#666666;fillColor=#f5f5f5;align=left;verticalAlign=top;spacingLeft=4;spacingRight=4;overflow=hidden;rotatable=0;points=[[0,0.5],[1,0.5]];portConstraint=eastwest;fontColor=#333333;" parent="X9hgIbNBHiSHphT8_-n9-4" vertex="1">
          <mxGeometry y="78" width="140" height="26" as="geometry" />
        </mxCell>
        <mxCell id="X9hgIbNBHiSHphT8_-n9-8" value="+ city: str" style="text;strokeColor=#d6b656;fillColor=#fff2cc;align=left;verticalAlign=top;spacingLeft=4;spacingRight=4;overflow=hidden;rotatable=0;points=[[0,0.5],[1,0.5]];portConstraint=eastwest;" parent="X9hgIbNBHiSHphT8_-n9-4" vertex="1">
          <mxGeometry y="104" width="140" height="26" as="geometry" />
        </mxCell>
        <mxCell id="X9hgIbNBHiSHphT8_-n9-9" value="+ state: str, nullable" style="text;strokeColor=#d6b656;fillColor=#fff2cc;align=left;verticalAlign=top;spacingLeft=4;spacingRight=4;overflow=hidden;rotatable=0;points=[[0,0.5],[1,0.5]];portConstraint=eastwest;" parent="X9hgIbNBHiSHphT8_-n9-4" vertex="1">
          <mxGeometry y="130" width="140" height="26" as="geometry" />
        </mxCell>
        <mxCell id="X9hgIbNBHiSHphT8_-n9-10" value="+ country: str" style="text;strokeColor=#d6b656;fillColor=#fff2cc;align=left;verticalAlign=top;spacingLeft=4;spacingRight=4;overflow=hidden;rotatable=0;points=[[0,0.5],[1,0.5]];portConstraint=eastwest;" parent="X9hgIbNBHiSHphT8_-n9-4" vertex="1">
          <mxGeometry y="156" width="140" height="26" as="geometry" />
        </mxCell>
        <mxCell id="X9hgIbNBHiSHphT8_-n9-94" style="edgeStyle=orthogonalEdgeStyle;rounded=1;orthogonalLoop=1;jettySize=auto;html=1;entryX=0;entryY=0.5;entryDx=0;entryDy=0;exitX=0.994;exitY=0.051;exitDx=0;exitDy=0;exitPerimeter=0;" parent="1" source="X9hgIbNBHiSHphT8_-n9-11" target="X9hgIbNBHiSHphT8_-n9-24" edge="1">
          <mxGeometry relative="1" as="geometry">
            <Array as="points">
              <mxPoint x="439" y="430" />
              <mxPoint x="500" y="430" />
              <mxPoint x="500" y="661" />
            </Array>
          </mxGeometry>
        </mxCell>
        <mxCell id="X9hgIbNBHiSHphT8_-n9-11" value="Recruiter" style="swimlane;fontStyle=0;childLayout=stackLayout;horizontal=1;startSize=26;fillColor=#d5e8d4;horizontalStack=0;resizeParent=1;resizeParentMax=0;resizeLast=0;collapsible=1;marginBottom=0;strokeColor=#82b366;" parent="1" vertex="1">
          <mxGeometry x="260" y="420" width="180" height="208" as="geometry" />
        </mxCell>
        <mxCell id="X9hgIbNBHiSHphT8_-n9-12" value="+ id: UUID" style="text;strokeColor=#666666;fillColor=#f5f5f5;align=left;verticalAlign=top;spacingLeft=4;spacingRight=4;overflow=hidden;rotatable=0;points=[[0,0.5],[1,0.5]];portConstraint=eastwest;fontColor=#333333;" parent="X9hgIbNBHiSHphT8_-n9-11" vertex="1">
          <mxGeometry y="26" width="180" height="26" as="geometry" />
        </mxCell>
        <mxCell id="X9hgIbNBHiSHphT8_-n9-13" value="+ created: datetime" style="text;strokeColor=#666666;fillColor=#f5f5f5;align=left;verticalAlign=top;spacingLeft=4;spacingRight=4;overflow=hidden;rotatable=0;points=[[0,0.5],[1,0.5]];portConstraint=eastwest;fontColor=#333333;" parent="X9hgIbNBHiSHphT8_-n9-11" vertex="1">
          <mxGeometry y="52" width="180" height="26" as="geometry" />
        </mxCell>
        <mxCell id="X9hgIbNBHiSHphT8_-n9-14" value="+ updated: datetime" style="text;strokeColor=#666666;fillColor=#f5f5f5;align=left;verticalAlign=top;spacingLeft=4;spacingRight=4;overflow=hidden;rotatable=0;points=[[0,0.5],[1,0.5]];portConstraint=eastwest;fontColor=#333333;" parent="X9hgIbNBHiSHphT8_-n9-11" vertex="1">
          <mxGeometry y="78" width="180" height="26" as="geometry" />
        </mxCell>
        <mxCell id="X9hgIbNBHiSHphT8_-n9-15" value="+ name: str" style="text;strokeColor=#d6b656;fillColor=#fff2cc;align=left;verticalAlign=top;spacingLeft=4;spacingRight=4;overflow=hidden;rotatable=0;points=[[0,0.5],[1,0.5]];portConstraint=eastwest;" parent="X9hgIbNBHiSHphT8_-n9-11" vertex="1">
          <mxGeometry y="104" width="180" height="26" as="geometry" />
        </mxCell>
        <mxCell id="X9hgIbNBHiSHphT8_-n9-16" value="+ surname: str" style="text;strokeColor=#d6b656;fillColor=#fff2cc;align=left;verticalAlign=top;spacingLeft=4;spacingRight=4;overflow=hidden;rotatable=0;points=[[0,0.5],[1,0.5]];portConstraint=eastwest;" parent="X9hgIbNBHiSHphT8_-n9-11" vertex="1">
          <mxGeometry y="130" width="180" height="26" as="geometry" />
        </mxCell>
        <mxCell id="X9hgIbNBHiSHphT8_-n9-114" value="+ email: str" style="text;strokeColor=#d6b656;fillColor=#fff2cc;align=left;verticalAlign=top;spacingLeft=4;spacingRight=4;overflow=hidden;rotatable=0;points=[[0,0.5],[1,0.5]];portConstraint=eastwest;" parent="X9hgIbNBHiSHphT8_-n9-11" vertex="1">
          <mxGeometry y="156" width="180" height="26" as="geometry" />
        </mxCell>
        <mxCell id="X9hgIbNBHiSHphT8_-n9-115" value="+ phone: str" style="text;strokeColor=#d6b656;fillColor=#fff2cc;align=left;verticalAlign=top;spacingLeft=4;spacingRight=4;overflow=hidden;rotatable=0;points=[[0,0.5],[1,0.5]];portConstraint=eastwest;" parent="X9hgIbNBHiSHphT8_-n9-11" vertex="1">
          <mxGeometry y="182" width="180" height="26" as="geometry" />
        </mxCell>
        <mxCell id="X9hgIbNBHiSHphT8_-n9-19" value="Job" style="swimlane;fontStyle=0;childLayout=stackLayout;horizontal=1;startSize=26;fillColor=#d5e8d4;horizontalStack=0;resizeParent=1;resizeParentMax=0;resizeLast=0;collapsible=1;marginBottom=0;strokeColor=#82b366;" parent="1" vertex="1">
          <mxGeometry x="560" y="310" width="220" height="416" as="geometry">
            <mxRectangle x="720" width="60" height="30" as="alternateBounds" />
          </mxGeometry>
        </mxCell>
        <mxCell id="X9hgIbNBHiSHphT8_-n9-20" value="+ id: UUID" style="text;strokeColor=#666666;fillColor=#f5f5f5;align=left;verticalAlign=top;spacingLeft=4;spacingRight=4;overflow=hidden;rotatable=0;points=[[0,0.5],[1,0.5]];portConstraint=eastwest;fontColor=#333333;" parent="X9hgIbNBHiSHphT8_-n9-19" vertex="1">
          <mxGeometry y="26" width="220" height="26" as="geometry" />
        </mxCell>
        <mxCell id="X9hgIbNBHiSHphT8_-n9-21" value="+ created: datetime" style="text;strokeColor=#666666;fillColor=#f5f5f5;align=left;verticalAlign=top;spacingLeft=4;spacingRight=4;overflow=hidden;rotatable=0;points=[[0,0.5],[1,0.5]];portConstraint=eastwest;fontColor=#333333;" parent="X9hgIbNBHiSHphT8_-n9-19" vertex="1">
          <mxGeometry y="52" width="220" height="26" as="geometry" />
        </mxCell>
        <mxCell id="X9hgIbNBHiSHphT8_-n9-22" value="+ updated: datetime" style="text;strokeColor=#666666;fillColor=#f5f5f5;align=left;verticalAlign=top;spacingLeft=4;spacingRight=4;overflow=hidden;rotatable=0;points=[[0,0.5],[1,0.5]];portConstraint=eastwest;fontColor=#333333;" parent="X9hgIbNBHiSHphT8_-n9-19" vertex="1">
          <mxGeometry y="78" width="220" height="26" as="geometry" />
        </mxCell>
        <mxCell id="X9hgIbNBHiSHphT8_-n9-32" value="+ date_listed: datetime" style="text;strokeColor=#d6b656;fillColor=#fff2cc;align=left;verticalAlign=top;spacingLeft=4;spacingRight=4;overflow=hidden;rotatable=0;points=[[0,0.5],[1,0.5]];portConstraint=eastwest;" parent="X9hgIbNBHiSHphT8_-n9-19" vertex="1">
          <mxGeometry y="104" width="220" height="26" as="geometry" />
        </mxCell>
        <mxCell id="X9hgIbNBHiSHphT8_-n9-33" value="+ live_until: datetime" style="text;strokeColor=#d6b656;fillColor=#fff2cc;align=left;verticalAlign=top;spacingLeft=4;spacingRight=4;overflow=hidden;rotatable=0;points=[[0,0.5],[1,0.5]];portConstraint=eastwest;" parent="X9hgIbNBHiSHphT8_-n9-19" vertex="1">
          <mxGeometry y="130" width="220" height="26" as="geometry" />
        </mxCell>
        <mxCell id="X9hgIbNBHiSHphT8_-n9-25" value="+ title: str" style="text;strokeColor=#d6b656;fillColor=#fff2cc;align=left;verticalAlign=top;spacingLeft=4;spacingRight=4;overflow=hidden;rotatable=0;points=[[0,0.5],[1,0.5]];portConstraint=eastwest;" parent="X9hgIbNBHiSHphT8_-n9-19" vertex="1">
          <mxGeometry y="156" width="220" height="26" as="geometry" />
        </mxCell>
        <mxCell id="X9hgIbNBHiSHphT8_-n9-26" value="+ rate_amount: int" style="text;strokeColor=#d6b656;fillColor=#fff2cc;align=left;verticalAlign=top;spacingLeft=4;spacingRight=4;overflow=hidden;rotatable=0;points=[[0,0.5],[1,0.5]];portConstraint=eastwest;" parent="X9hgIbNBHiSHphT8_-n9-19" vertex="1">
          <mxGeometry y="182" width="220" height="26" as="geometry" />
        </mxCell>
        <mxCell id="X9hgIbNBHiSHphT8_-n9-27" value="+ rate_per_time_unit: enum(str)" style="text;strokeColor=#d6b656;fillColor=#fff2cc;align=left;verticalAlign=top;spacingLeft=4;spacingRight=4;overflow=hidden;rotatable=0;points=[[0,0.5],[1,0.5]];portConstraint=eastwest;" parent="X9hgIbNBHiSHphT8_-n9-19" vertex="1">
          <mxGeometry y="208" width="220" height="26" as="geometry" />
        </mxCell>
        <mxCell id="X9hgIbNBHiSHphT8_-n9-28" value="+ rate_annualized: int" style="text;strokeColor=#d6b656;fillColor=#fff2cc;align=left;verticalAlign=top;spacingLeft=4;spacingRight=4;overflow=hidden;rotatable=0;points=[[0,0.5],[1,0.5]];portConstraint=eastwest;" parent="X9hgIbNBHiSHphT8_-n9-19" vertex="1">
          <mxGeometry y="234" width="220" height="26" as="geometry" />
        </mxCell>
        <mxCell id="X9hgIbNBHiSHphT8_-n9-29" value="+ benefits: str" style="text;strokeColor=#d6b656;fillColor=#fff2cc;align=left;verticalAlign=top;spacingLeft=4;spacingRight=4;overflow=hidden;rotatable=0;points=[[0,0.5],[1,0.5]];portConstraint=eastwest;" parent="X9hgIbNBHiSHphT8_-n9-19" vertex="1">
          <mxGeometry y="260" width="220" height="26" as="geometry" />
        </mxCell>
        <mxCell id="X9hgIbNBHiSHphT8_-n9-34" value="+ location_id: UUID, FK=location.id" style="text;strokeColor=#d79b00;fillColor=#ffe6cc;align=left;verticalAlign=top;spacingLeft=4;spacingRight=4;overflow=hidden;rotatable=0;points=[[0,0.5],[1,0.5]];portConstraint=eastwest;" parent="X9hgIbNBHiSHphT8_-n9-19" vertex="1">
          <mxGeometry y="286" width="220" height="26" as="geometry" />
        </mxCell>
        <mxCell id="X9hgIbNBHiSHphT8_-n9-93" value="+ remote_allowed: bool" style="text;strokeColor=#d6b656;fillColor=#fff2cc;align=left;verticalAlign=top;spacingLeft=4;spacingRight=4;overflow=hidden;rotatable=0;points=[[0,0.5],[1,0.5]];portConstraint=eastwest;" parent="X9hgIbNBHiSHphT8_-n9-19" vertex="1">
          <mxGeometry y="312" width="220" height="26" as="geometry" />
        </mxCell>
        <mxCell id="X9hgIbNBHiSHphT8_-n9-24" value="+ recruiter_id: UUID, FK=recruiter.id" style="text;strokeColor=#d79b00;fillColor=#ffe6cc;align=left;verticalAlign=top;spacingLeft=4;spacingRight=4;overflow=hidden;rotatable=0;points=[[0,0.5],[1,0.5]];portConstraint=eastwest;" parent="X9hgIbNBHiSHphT8_-n9-19" vertex="1">
          <mxGeometry y="338" width="220" height="26" as="geometry" />
        </mxCell>
        <mxCell id="X9hgIbNBHiSHphT8_-n9-30" value="+ contract_type: enum(str)" style="text;strokeColor=#d6b656;fillColor=#fff2cc;align=left;verticalAlign=top;spacingLeft=4;spacingRight=4;overflow=hidden;rotatable=0;points=[[0,0.5],[1,0.5]];portConstraint=eastwest;" parent="X9hgIbNBHiSHphT8_-n9-19" vertex="1">
          <mxGeometry y="364" width="220" height="26" as="geometry" />
        </mxCell>
        <mxCell id="X9hgIbNBHiSHphT8_-n9-31" value="+ description: str" style="text;strokeColor=#d6b656;fillColor=#fff2cc;align=left;verticalAlign=top;spacingLeft=4;spacingRight=4;overflow=hidden;rotatable=0;points=[[0,0.5],[1,0.5]];portConstraint=eastwest;" parent="X9hgIbNBHiSHphT8_-n9-19" vertex="1">
          <mxGeometry y="390" width="220" height="26" as="geometry" />
        </mxCell>
        <mxCell id="X9hgIbNBHiSHphT8_-n9-41" value="Skill" style="swimlane;fontStyle=0;childLayout=stackLayout;horizontal=1;startSize=26;fillColor=#d5e8d4;horizontalStack=0;resizeParent=1;resizeParentMax=0;resizeLast=0;collapsible=1;marginBottom=0;strokeColor=#82b366;" parent="1" vertex="1">
          <mxGeometry x="1145" y="126" width="140" height="130" as="geometry" />
        </mxCell>
        <mxCell id="X9hgIbNBHiSHphT8_-n9-42" value="+ id: UUID" style="text;strokeColor=#666666;fillColor=#f5f5f5;align=left;verticalAlign=top;spacingLeft=4;spacingRight=4;overflow=hidden;rotatable=0;points=[[0,0.5],[1,0.5]];portConstraint=eastwest;fontColor=#333333;" parent="X9hgIbNBHiSHphT8_-n9-41" vertex="1">
          <mxGeometry y="26" width="140" height="26" as="geometry" />
        </mxCell>
        <mxCell id="X9hgIbNBHiSHphT8_-n9-43" value="+ created: datetime" style="text;strokeColor=#666666;fillColor=#f5f5f5;align=left;verticalAlign=top;spacingLeft=4;spacingRight=4;overflow=hidden;rotatable=0;points=[[0,0.5],[1,0.5]];portConstraint=eastwest;fontColor=#333333;" parent="X9hgIbNBHiSHphT8_-n9-41" vertex="1">
          <mxGeometry y="52" width="140" height="26" as="geometry" />
        </mxCell>
        <mxCell id="X9hgIbNBHiSHphT8_-n9-44" value="+ updated: datetime" style="text;strokeColor=#666666;fillColor=#f5f5f5;align=left;verticalAlign=top;spacingLeft=4;spacingRight=4;overflow=hidden;rotatable=0;points=[[0,0.5],[1,0.5]];portConstraint=eastwest;fontColor=#333333;" parent="X9hgIbNBHiSHphT8_-n9-41" vertex="1">
          <mxGeometry y="78" width="140" height="26" as="geometry" />
        </mxCell>
        <mxCell id="X9hgIbNBHiSHphT8_-n9-45" value="+ name: str" style="text;strokeColor=#d6b656;fillColor=#fff2cc;align=left;verticalAlign=top;spacingLeft=4;spacingRight=4;overflow=hidden;rotatable=0;points=[[0,0.5],[1,0.5]];portConstraint=eastwest;" parent="X9hgIbNBHiSHphT8_-n9-41" vertex="1">
          <mxGeometry y="104" width="140" height="26" as="geometry" />
        </mxCell>
        <mxCell id="X9hgIbNBHiSHphT8_-n9-46" value="+ applications: relationship(JobApplication)" style="text;strokeColor=none;fillColor=none;align=left;verticalAlign=top;spacingLeft=4;spacingRight=4;overflow=hidden;rotatable=0;points=[[0,0.5],[1,0.5]];portConstraint=eastwest;" parent="1" vertex="1">
          <mxGeometry x="560" y="727" width="330" height="26" as="geometry" />
        </mxCell>
        <mxCell id="X9hgIbNBHiSHphT8_-n9-48" value="+ recruiter: relationship(Recruiter)" style="text;strokeColor=none;fillColor=none;align=left;verticalAlign=top;spacingLeft=4;spacingRight=4;overflow=hidden;rotatable=0;points=[[0,0.5],[1,0.5]];portConstraint=eastwest;" parent="1" vertex="1">
          <mxGeometry x="560" y="753" width="330" height="26" as="geometry" />
        </mxCell>
        <mxCell id="X9hgIbNBHiSHphT8_-n9-51" value="+ location: relationship(Location)" style="text;strokeColor=none;fillColor=none;align=left;verticalAlign=top;spacingLeft=4;spacingRight=4;overflow=hidden;rotatable=0;points=[[0,0.5],[1,0.5]];portConstraint=eastwest;" parent="1" vertex="1">
          <mxGeometry x="560" y="780" width="330" height="26" as="geometry" />
        </mxCell>
        <mxCell id="X9hgIbNBHiSHphT8_-n9-52" value="+ skills: relationship(Skill, secondary=skills_job_association)" style="text;strokeColor=none;fillColor=none;align=left;verticalAlign=top;spacingLeft=4;spacingRight=4;overflow=hidden;rotatable=0;points=[[0,0.5],[1,0.5]];portConstraint=eastwest;" parent="1" vertex="1">
          <mxGeometry x="560" y="806" width="330" height="26" as="geometry" />
        </mxCell>
        <mxCell id="X9hgIbNBHiSHphT8_-n9-53" value="Candidate" style="swimlane;fontStyle=0;childLayout=stackLayout;horizontal=1;startSize=26;fillColor=#d5e8d4;horizontalStack=0;resizeParent=1;resizeParentMax=0;resizeLast=0;collapsible=1;marginBottom=0;strokeColor=#82b366;" parent="1" vertex="1">
          <mxGeometry x="1160" y="290" width="200" height="442" as="geometry" />
        </mxCell>
        <mxCell id="X9hgIbNBHiSHphT8_-n9-54" value="+ id: UUID" style="text;strokeColor=#666666;fillColor=#f5f5f5;align=left;verticalAlign=top;spacingLeft=4;spacingRight=4;overflow=hidden;rotatable=0;points=[[0,0.5],[1,0.5]];portConstraint=eastwest;fontColor=#333333;" parent="X9hgIbNBHiSHphT8_-n9-53" vertex="1">
          <mxGeometry y="26" width="200" height="26" as="geometry" />
        </mxCell>
        <mxCell id="X9hgIbNBHiSHphT8_-n9-55" value="+ created: datetime" style="text;strokeColor=#666666;fillColor=#f5f5f5;align=left;verticalAlign=top;spacingLeft=4;spacingRight=4;overflow=hidden;rotatable=0;points=[[0,0.5],[1,0.5]];portConstraint=eastwest;fontColor=#333333;" parent="X9hgIbNBHiSHphT8_-n9-53" vertex="1">
          <mxGeometry y="52" width="200" height="26" as="geometry" />
        </mxCell>
        <mxCell id="X9hgIbNBHiSHphT8_-n9-56" value="+ updated: datetime" style="text;strokeColor=#666666;fillColor=#f5f5f5;align=left;verticalAlign=top;spacingLeft=4;spacingRight=4;overflow=hidden;rotatable=0;points=[[0,0.5],[1,0.5]];portConstraint=eastwest;fontColor=#333333;" parent="X9hgIbNBHiSHphT8_-n9-53" vertex="1">
          <mxGeometry y="78" width="200" height="26" as="geometry" />
        </mxCell>
        <mxCell id="X9hgIbNBHiSHphT8_-n9-104" value="+ name: str" style="text;strokeColor=#d6b656;fillColor=#fff2cc;align=left;verticalAlign=top;spacingLeft=4;spacingRight=4;overflow=hidden;rotatable=0;points=[[0,0.5],[1,0.5]];portConstraint=eastwest;" parent="X9hgIbNBHiSHphT8_-n9-53" vertex="1">
          <mxGeometry y="104" width="200" height="26" as="geometry" />
        </mxCell>
        <mxCell id="X9hgIbNBHiSHphT8_-n9-57" value="+ surname: str" style="text;strokeColor=#d6b656;fillColor=#fff2cc;align=left;verticalAlign=top;spacingLeft=4;spacingRight=4;overflow=hidden;rotatable=0;points=[[0,0.5],[1,0.5]];portConstraint=eastwest;" parent="X9hgIbNBHiSHphT8_-n9-53" vertex="1">
          <mxGeometry y="130" width="200" height="26" as="geometry" />
        </mxCell>
        <mxCell id="X9hgIbNBHiSHphT8_-n9-58" value="+ email: str" style="text;strokeColor=#d6b656;fillColor=#fff2cc;align=left;verticalAlign=top;spacingLeft=4;spacingRight=4;overflow=hidden;rotatable=0;points=[[0,0.5],[1,0.5]];portConstraint=eastwest;" parent="X9hgIbNBHiSHphT8_-n9-53" vertex="1">
          <mxGeometry y="156" width="200" height="26" as="geometry" />
        </mxCell>
        <mxCell id="X9hgIbNBHiSHphT8_-n9-105" value="+ phone: str" style="text;strokeColor=#d6b656;fillColor=#fff2cc;align=left;verticalAlign=top;spacingLeft=4;spacingRight=4;overflow=hidden;rotatable=0;points=[[0,0.5],[1,0.5]];portConstraint=eastwest;" parent="X9hgIbNBHiSHphT8_-n9-53" vertex="1">
          <mxGeometry y="182" width="200" height="26" as="geometry" />
        </mxCell>
        <mxCell id="X9hgIbNBHiSHphT8_-n9-106" value="+ cv: str" style="text;strokeColor=#d6b656;fillColor=#fff2cc;align=left;verticalAlign=top;spacingLeft=4;spacingRight=4;overflow=hidden;rotatable=0;points=[[0,0.5],[1,0.5]];portConstraint=eastwest;" parent="X9hgIbNBHiSHphT8_-n9-53" vertex="1">
          <mxGeometry y="208" width="200" height="26" as="geometry" />
        </mxCell>
        <mxCell id="X9hgIbNBHiSHphT8_-n9-107" value="+ email: str" style="text;strokeColor=#d6b656;fillColor=#fff2cc;align=left;verticalAlign=top;spacingLeft=4;spacingRight=4;overflow=hidden;rotatable=0;points=[[0,0.5],[1,0.5]];portConstraint=eastwest;" parent="X9hgIbNBHiSHphT8_-n9-53" vertex="1">
          <mxGeometry y="234" width="200" height="26" as="geometry" />
        </mxCell>
        <mxCell id="X9hgIbNBHiSHphT8_-n9-60" value="+ location_id: UUID, FK=location.id" style="text;strokeColor=#d79b00;fillColor=#ffe6cc;align=left;verticalAlign=top;spacingLeft=4;spacingRight=4;overflow=hidden;rotatable=0;points=[[0,0.5],[1,0.5]];portConstraint=eastwest;" parent="X9hgIbNBHiSHphT8_-n9-53" vertex="1">
          <mxGeometry y="260" width="200" height="26" as="geometry" />
        </mxCell>
        <mxCell id="X9hgIbNBHiSHphT8_-n9-108" value="+ willing_to_relocate: bool" style="text;strokeColor=#d6b656;fillColor=#fff2cc;align=left;verticalAlign=top;spacingLeft=4;spacingRight=4;overflow=hidden;rotatable=0;points=[[0,0.5],[1,0.5]];portConstraint=eastwest;" parent="X9hgIbNBHiSHphT8_-n9-53" vertex="1">
          <mxGeometry y="286" width="200" height="26" as="geometry" />
        </mxCell>
        <mxCell id="X9hgIbNBHiSHphT8_-n9-109" value="+ remote_ok: bool" style="text;strokeColor=#d6b656;fillColor=#fff2cc;align=left;verticalAlign=top;spacingLeft=4;spacingRight=4;overflow=hidden;rotatable=0;points=[[0,0.5],[1,0.5]];portConstraint=eastwest;" parent="X9hgIbNBHiSHphT8_-n9-53" vertex="1">
          <mxGeometry y="312" width="200" height="26" as="geometry" />
        </mxCell>
        <mxCell id="X9hgIbNBHiSHphT8_-n9-110" value="+ status: enum(str)" style="text;strokeColor=#d6b656;fillColor=#fff2cc;align=left;verticalAlign=top;spacingLeft=4;spacingRight=4;overflow=hidden;rotatable=0;points=[[0,0.5],[1,0.5]];portConstraint=eastwest;" parent="X9hgIbNBHiSHphT8_-n9-53" vertex="1">
          <mxGeometry y="338" width="200" height="26" as="geometry" />
        </mxCell>
        <mxCell id="X9hgIbNBHiSHphT8_-n9-111" value="+ current_title: str" style="text;strokeColor=#d6b656;fillColor=#fff2cc;align=left;verticalAlign=top;spacingLeft=4;spacingRight=4;overflow=hidden;rotatable=0;points=[[0,0.5],[1,0.5]];portConstraint=eastwest;" parent="X9hgIbNBHiSHphT8_-n9-53" vertex="1">
          <mxGeometry y="364" width="200" height="26" as="geometry" />
        </mxCell>
        <mxCell id="X9hgIbNBHiSHphT8_-n9-112" value="+ experience_years: int" style="text;strokeColor=#d6b656;fillColor=#fff2cc;align=left;verticalAlign=top;spacingLeft=4;spacingRight=4;overflow=hidden;rotatable=0;points=[[0,0.5],[1,0.5]];portConstraint=eastwest;" parent="X9hgIbNBHiSHphT8_-n9-53" vertex="1">
          <mxGeometry y="390" width="200" height="26" as="geometry" />
        </mxCell>
        <mxCell id="X9hgIbNBHiSHphT8_-n9-113" value="+ looking_for: str" style="text;strokeColor=#d6b656;fillColor=#fff2cc;align=left;verticalAlign=top;spacingLeft=4;spacingRight=4;overflow=hidden;rotatable=0;points=[[0,0.5],[1,0.5]];portConstraint=eastwest;" parent="X9hgIbNBHiSHphT8_-n9-53" vertex="1">
          <mxGeometry y="416" width="200" height="26" as="geometry" />
        </mxCell>
        <mxCell id="X9hgIbNBHiSHphT8_-n9-61" value="+ applications: relationship(JobApplication)" style="text;strokeColor=none;fillColor=none;align=left;verticalAlign=top;spacingLeft=4;spacingRight=4;overflow=hidden;rotatable=0;points=[[0,0.5],[1,0.5]];portConstraint=eastwest;" parent="1" vertex="1">
          <mxGeometry x="1160" y="732" width="250" height="26" as="geometry" />
        </mxCell>
        <mxCell id="X9hgIbNBHiSHphT8_-n9-62" value="+ location: relationship(Location)" style="text;strokeColor=none;fillColor=none;align=left;verticalAlign=top;spacingLeft=4;spacingRight=4;overflow=hidden;rotatable=0;points=[[0,0.5],[1,0.5]];portConstraint=eastwest;" parent="1" vertex="1">
          <mxGeometry x="1160" y="758" width="250" height="26" as="geometry" />
        </mxCell>
        <mxCell id="X9hgIbNBHiSHphT8_-n9-63" value="+ skills: relationship(SkillsExperience)" style="text;strokeColor=none;fillColor=none;align=left;verticalAlign=top;spacingLeft=4;spacingRight=4;overflow=hidden;rotatable=0;points=[[0,0.5],[1,0.5]];portConstraint=eastwest;" parent="1" vertex="1">
          <mxGeometry x="1160" y="784" width="250" height="26" as="geometry" />
        </mxCell>
        <mxCell id="X9hgIbNBHiSHphT8_-n9-64" value="JobApplication" style="swimlane;fontStyle=0;childLayout=stackLayout;horizontal=1;startSize=26;fillColor=#d5e8d4;horizontalStack=0;resizeParent=1;resizeParentMax=0;resizeLast=0;collapsible=1;marginBottom=0;strokeColor=#82b366;" parent="1" vertex="1">
          <mxGeometry x="860" y="300" width="220" height="286" as="geometry" />
        </mxCell>
        <mxCell id="X9hgIbNBHiSHphT8_-n9-65" value="+ id: UUID" style="text;strokeColor=#666666;fillColor=#f5f5f5;align=left;verticalAlign=top;spacingLeft=4;spacingRight=4;overflow=hidden;rotatable=0;points=[[0,0.5],[1,0.5]];portConstraint=eastwest;fontColor=#333333;" parent="X9hgIbNBHiSHphT8_-n9-64" vertex="1">
          <mxGeometry y="26" width="220" height="26" as="geometry" />
        </mxCell>
        <mxCell id="X9hgIbNBHiSHphT8_-n9-66" value="+ created: datetime" style="text;strokeColor=#666666;fillColor=#f5f5f5;align=left;verticalAlign=top;spacingLeft=4;spacingRight=4;overflow=hidden;rotatable=0;points=[[0,0.5],[1,0.5]];portConstraint=eastwest;fontColor=#333333;" parent="X9hgIbNBHiSHphT8_-n9-64" vertex="1">
          <mxGeometry y="52" width="220" height="26" as="geometry" />
        </mxCell>
        <mxCell id="X9hgIbNBHiSHphT8_-n9-67" value="+ updated: datetime" style="text;strokeColor=#666666;fillColor=#f5f5f5;align=left;verticalAlign=top;spacingLeft=4;spacingRight=4;overflow=hidden;rotatable=0;points=[[0,0.5],[1,0.5]];portConstraint=eastwest;fontColor=#333333;" parent="X9hgIbNBHiSHphT8_-n9-64" vertex="1">
          <mxGeometry y="78" width="220" height="26" as="geometry" />
        </mxCell>
        <mxCell id="X9hgIbNBHiSHphT8_-n9-95" value="+ cover_letter: str, nullable" style="text;strokeColor=#d6b656;fillColor=#fff2cc;align=left;verticalAlign=top;spacingLeft=4;spacingRight=4;overflow=hidden;rotatable=0;points=[[0,0.5],[1,0.5]];portConstraint=eastwest;" parent="X9hgIbNBHiSHphT8_-n9-64" vertex="1">
          <mxGeometry y="104" width="220" height="26" as="geometry" />
        </mxCell>
        <mxCell id="X9hgIbNBHiSHphT8_-n9-99" value="+ candidate_availability: date" style="text;strokeColor=#d6b656;fillColor=#fff2cc;align=left;verticalAlign=top;spacingLeft=4;spacingRight=4;overflow=hidden;rotatable=0;points=[[0,0.5],[1,0.5]];portConstraint=eastwest;" parent="X9hgIbNBHiSHphT8_-n9-64" vertex="1">
          <mxGeometry y="130" width="220" height="26" as="geometry" />
        </mxCell>
        <mxCell id="X9hgIbNBHiSHphT8_-n9-100" value="+ status: enum(str)" style="text;strokeColor=#d6b656;fillColor=#fff2cc;align=left;verticalAlign=top;spacingLeft=4;spacingRight=4;overflow=hidden;rotatable=0;points=[[0,0.5],[1,0.5]];portConstraint=eastwest;" parent="X9hgIbNBHiSHphT8_-n9-64" vertex="1">
          <mxGeometry y="156" width="220" height="26" as="geometry" />
        </mxCell>
        <mxCell id="X9hgIbNBHiSHphT8_-n9-68" value="+ candidate_id: UUID, FK=candidate.id" style="text;strokeColor=#d79b00;fillColor=#ffe6cc;align=left;verticalAlign=top;spacingLeft=4;spacingRight=4;overflow=hidden;rotatable=0;points=[[0,0.5],[1,0.5]];portConstraint=eastwest;" parent="X9hgIbNBHiSHphT8_-n9-64" vertex="1">
          <mxGeometry y="182" width="220" height="26" as="geometry" />
        </mxCell>
        <mxCell id="X9hgIbNBHiSHphT8_-n9-69" value="+ job_id: UUID, FK=job.id" style="text;strokeColor=#d79b00;fillColor=#ffe6cc;align=left;verticalAlign=top;spacingLeft=4;spacingRight=4;overflow=hidden;rotatable=0;points=[[0,0.5],[1,0.5]];portConstraint=eastwest;" parent="X9hgIbNBHiSHphT8_-n9-64" vertex="1">
          <mxGeometry y="208" width="220" height="26" as="geometry" />
        </mxCell>
        <mxCell id="X9hgIbNBHiSHphT8_-n9-70" value="+ job: relationship(Job)" style="text;strokeColor=#6c8ebf;fillColor=#dae8fc;align=left;verticalAlign=top;spacingLeft=4;spacingRight=4;overflow=hidden;rotatable=0;points=[[0,0.5],[1,0.5]];portConstraint=eastwest;" parent="X9hgIbNBHiSHphT8_-n9-64" vertex="1">
          <mxGeometry y="234" width="220" height="26" as="geometry" />
        </mxCell>
        <mxCell id="X9hgIbNBHiSHphT8_-n9-71" value="+ candidate: relationship(Candidate)" style="text;strokeColor=#6c8ebf;fillColor=#dae8fc;align=left;verticalAlign=top;spacingLeft=4;spacingRight=4;overflow=hidden;rotatable=0;points=[[0,0.5],[1,0.5]];portConstraint=eastwest;" parent="X9hgIbNBHiSHphT8_-n9-64" vertex="1">
          <mxGeometry y="260" width="220" height="26" as="geometry" />
        </mxCell>
        <mxCell id="X9hgIbNBHiSHphT8_-n9-72" value="skills_job_association" style="swimlane;fontStyle=0;childLayout=stackLayout;horizontal=1;startSize=26;fillColor=#e1d5e7;horizontalStack=0;resizeParent=1;resizeParentMax=0;resizeLast=0;collapsible=1;marginBottom=0;strokeColor=#9673a6;" parent="1" vertex="1">
          <mxGeometry x="910" y="100" width="140" height="78" as="geometry" />
        </mxCell>
        <mxCell id="X9hgIbNBHiSHphT8_-n9-73" value="+ skill: UUID, FK=skill.id" style="text;strokeColor=#d79b00;fillColor=#ffe6cc;align=left;verticalAlign=top;spacingLeft=4;spacingRight=4;overflow=hidden;rotatable=0;points=[[0,0.5],[1,0.5]];portConstraint=eastwest;" parent="X9hgIbNBHiSHphT8_-n9-72" vertex="1">
          <mxGeometry y="26" width="140" height="26" as="geometry" />
        </mxCell>
        <mxCell id="X9hgIbNBHiSHphT8_-n9-74" value="+ job: UUID, FK=job.id" style="text;strokeColor=#d79b00;fillColor=#ffe6cc;align=left;verticalAlign=top;spacingLeft=4;spacingRight=4;overflow=hidden;rotatable=0;points=[[0,0.5],[1,0.5]];portConstraint=eastwest;" parent="X9hgIbNBHiSHphT8_-n9-72" vertex="1">
          <mxGeometry y="52" width="140" height="26" as="geometry" />
        </mxCell>
        <mxCell id="X9hgIbNBHiSHphT8_-n9-75" value="SkillsExperience" style="swimlane;fontStyle=0;childLayout=stackLayout;horizontal=1;startSize=26;fillColor=#d5e8d4;horizontalStack=0;resizeParent=1;resizeParentMax=0;resizeLast=0;collapsible=1;marginBottom=0;strokeColor=#82b366;" parent="1" vertex="1">
          <mxGeometry x="1420" y="134" width="210" height="182" as="geometry" />
        </mxCell>
        <mxCell id="X9hgIbNBHiSHphT8_-n9-118" value="+ id: UUID" style="text;strokeColor=#666666;fillColor=#f5f5f5;align=left;verticalAlign=top;spacingLeft=4;spacingRight=4;overflow=hidden;rotatable=0;points=[[0,0.5],[1,0.5]];portConstraint=eastwest;fontColor=#333333;" parent="X9hgIbNBHiSHphT8_-n9-75" vertex="1">
          <mxGeometry y="26" width="210" height="26" as="geometry" />
        </mxCell>
        <mxCell id="X9hgIbNBHiSHphT8_-n9-119" value="+ created: datetime" style="text;strokeColor=#666666;fillColor=#f5f5f5;align=left;verticalAlign=top;spacingLeft=4;spacingRight=4;overflow=hidden;rotatable=0;points=[[0,0.5],[1,0.5]];portConstraint=eastwest;fontColor=#333333;" parent="X9hgIbNBHiSHphT8_-n9-75" vertex="1">
          <mxGeometry y="52" width="210" height="26" as="geometry" />
        </mxCell>
        <mxCell id="X9hgIbNBHiSHphT8_-n9-120" value="+ updated: datetime" style="text;strokeColor=#666666;fillColor=#f5f5f5;align=left;verticalAlign=top;spacingLeft=4;spacingRight=4;overflow=hidden;rotatable=0;points=[[0,0.5],[1,0.5]];portConstraint=eastwest;fontColor=#333333;" parent="X9hgIbNBHiSHphT8_-n9-75" vertex="1">
          <mxGeometry y="78" width="210" height="26" as="geometry" />
        </mxCell>
        <mxCell id="X9hgIbNBHiSHphT8_-n9-76" value="+ skill_id: UUID, FK=skill.id" style="text;strokeColor=#d79b00;fillColor=#ffe6cc;align=left;verticalAlign=top;spacingLeft=4;spacingRight=4;overflow=hidden;rotatable=0;points=[[0,0.5],[1,0.5]];portConstraint=eastwest;" parent="X9hgIbNBHiSHphT8_-n9-75" vertex="1">
          <mxGeometry y="104" width="210" height="26" as="geometry" />
        </mxCell>
        <mxCell id="X9hgIbNBHiSHphT8_-n9-77" value="+ candidate: UUID, FK=candidate.id" style="text;strokeColor=#d79b00;fillColor=#ffe6cc;align=left;verticalAlign=top;spacingLeft=4;spacingRight=4;overflow=hidden;rotatable=0;points=[[0,0.5],[1,0.5]];portConstraint=eastwest;" parent="X9hgIbNBHiSHphT8_-n9-75" vertex="1">
          <mxGeometry y="130" width="210" height="26" as="geometry" />
        </mxCell>
        <mxCell id="X9hgIbNBHiSHphT8_-n9-78" value="+ year_of_experience: int" style="text;strokeColor=#d6b656;fillColor=#fff2cc;align=left;verticalAlign=top;spacingLeft=4;spacingRight=4;overflow=hidden;rotatable=0;points=[[0,0.5],[1,0.5]];portConstraint=eastwest;" parent="X9hgIbNBHiSHphT8_-n9-75" vertex="1">
          <mxGeometry y="156" width="210" height="26" as="geometry" />
        </mxCell>
        <mxCell id="X9hgIbNBHiSHphT8_-n9-83" style="edgeStyle=orthogonalEdgeStyle;rounded=1;orthogonalLoop=1;jettySize=auto;html=1;entryX=-0.007;entryY=0.049;entryDx=0;entryDy=0;entryPerimeter=0;" parent="1" source="X9hgIbNBHiSHphT8_-n9-34" target="X9hgIbNBHiSHphT8_-n9-4" edge="1">
          <mxGeometry relative="1" as="geometry" />
        </mxCell>
        <mxCell id="X9hgIbNBHiSHphT8_-n9-84" style="edgeStyle=orthogonalEdgeStyle;rounded=1;orthogonalLoop=1;jettySize=auto;html=1;entryX=0.004;entryY=0.033;entryDx=0;entryDy=0;entryPerimeter=0;" parent="1" source="X9hgIbNBHiSHphT8_-n9-68" target="X9hgIbNBHiSHphT8_-n9-53" edge="1">
          <mxGeometry relative="1" as="geometry" />
        </mxCell>
        <mxCell id="X9hgIbNBHiSHphT8_-n9-87" style="edgeStyle=orthogonalEdgeStyle;rounded=1;orthogonalLoop=1;jettySize=auto;html=1;entryX=1.004;entryY=0.115;entryDx=0;entryDy=0;entryPerimeter=0;" parent="1" source="X9hgIbNBHiSHphT8_-n9-76" target="X9hgIbNBHiSHphT8_-n9-41" edge="1">
          <mxGeometry relative="1" as="geometry" />
        </mxCell>
        <mxCell id="X9hgIbNBHiSHphT8_-n9-88" style="edgeStyle=orthogonalEdgeStyle;rounded=1;orthogonalLoop=1;jettySize=auto;html=1;entryX=-0.013;entryY=0.097;entryDx=0;entryDy=0;entryPerimeter=0;" parent="1" source="X9hgIbNBHiSHphT8_-n9-73" target="X9hgIbNBHiSHphT8_-n9-41" edge="1">
          <mxGeometry relative="1" as="geometry" />
        </mxCell>
        <mxCell id="X9hgIbNBHiSHphT8_-n9-89" style="edgeStyle=orthogonalEdgeStyle;rounded=1;orthogonalLoop=1;jettySize=auto;html=1;entryX=0.5;entryY=0;entryDx=0;entryDy=0;" parent="1" source="X9hgIbNBHiSHphT8_-n9-74" target="X9hgIbNBHiSHphT8_-n9-19" edge="1">
          <mxGeometry relative="1" as="geometry" />
        </mxCell>
        <mxCell id="X9hgIbNBHiSHphT8_-n9-90" style="edgeStyle=orthogonalEdgeStyle;rounded=1;orthogonalLoop=1;jettySize=auto;html=1;entryX=0.998;entryY=0.068;entryDx=0;entryDy=0;entryPerimeter=0;" parent="1" source="X9hgIbNBHiSHphT8_-n9-60" target="X9hgIbNBHiSHphT8_-n9-4" edge="1">
          <mxGeometry relative="1" as="geometry" />
        </mxCell>
        <mxCell id="X9hgIbNBHiSHphT8_-n9-96" style="edgeStyle=orthogonalEdgeStyle;rounded=1;orthogonalLoop=1;jettySize=auto;html=1;entryX=1.009;entryY=0.024;entryDx=0;entryDy=0;entryPerimeter=0;" parent="1" source="X9hgIbNBHiSHphT8_-n9-69" target="X9hgIbNBHiSHphT8_-n9-19" edge="1">
          <mxGeometry relative="1" as="geometry" />
        </mxCell>
        <mxCell id="X9hgIbNBHiSHphT8_-n9-101" value="+ skill: relationship(Skill)" style="text;strokeColor=#6c8ebf;fillColor=#dae8fc;align=left;verticalAlign=top;spacingLeft=4;spacingRight=4;overflow=hidden;rotatable=0;points=[[0,0.5],[1,0.5]];portConstraint=eastwest;" parent="1" vertex="1">
          <mxGeometry x="1420" y="316" width="210" height="26" as="geometry" />
        </mxCell>
        <mxCell id="X9hgIbNBHiSHphT8_-n9-102" value="+ candidate: relationship(Candidate)" style="text;strokeColor=#6c8ebf;fillColor=#dae8fc;align=left;verticalAlign=top;spacingLeft=4;spacingRight=4;overflow=hidden;rotatable=0;points=[[0,0.5],[1,0.5]];portConstraint=eastwest;" parent="1" vertex="1">
          <mxGeometry x="1420" y="342" width="210" height="26" as="geometry" />
        </mxCell>
        <mxCell id="X9hgIbNBHiSHphT8_-n9-103" style="edgeStyle=orthogonalEdgeStyle;rounded=1;orthogonalLoop=1;jettySize=auto;html=1;exitX=1;exitY=0.75;exitDx=0;exitDy=0;" parent="1" source="X9hgIbNBHiSHphT8_-n9-75" edge="1">
          <mxGeometry relative="1" as="geometry">
            <mxPoint x="1360" y="306" as="targetPoint" />
            <Array as="points">
              <mxPoint x="1680" y="271" />
              <mxPoint x="1680" y="420" />
              <mxPoint x="1380" y="420" />
              <mxPoint x="1380" y="306" />
            </Array>
          </mxGeometry>
        </mxCell>
        <mxCell id="X9hgIbNBHiSHphT8_-n9-117" style="edgeStyle=orthogonalEdgeStyle;rounded=1;orthogonalLoop=1;jettySize=auto;html=1;entryX=0.005;entryY=0.022;entryDx=0;entryDy=0;entryPerimeter=0;dashed=1;" parent="1" source="X9hgIbNBHiSHphT8_-n9-116" target="X9hgIbNBHiSHphT8_-n9-19" edge="1">
          <mxGeometry relative="1" as="geometry">
            <Array as="points">
              <mxPoint x="210" y="641" />
              <mxPoint x="210" y="319" />
            </Array>
          </mxGeometry>
        </mxCell>
        <mxCell id="X9hgIbNBHiSHphT8_-n9-116" value="+ listings: relationship(Job)" style="text;strokeColor=#6c8ebf;fillColor=#dae8fc;align=left;verticalAlign=top;spacingLeft=4;spacingRight=4;overflow=hidden;rotatable=0;points=[[0,0.5],[1,0.5]];portConstraint=eastwest;" parent="1" vertex="1">
          <mxGeometry x="260" y="628" width="180" height="26" as="geometry" />
        </mxCell>
      </root>
    </mxGraphModel>
  </diagram>
  <diagram id="qrTlTFZZEnCEcyVDe7Kx" name="Page-3">
    <mxGraphModel dx="1147" dy="662" grid="1" gridSize="10" guides="1" tooltips="1" connect="1" arrows="1" fold="1" page="1" pageScale="1" pageWidth="850" pageHeight="1100" math="0" shadow="0">
      <root>
        <mxCell id="0" />
        <mxCell id="1" parent="0" />
        <mxCell id="oqWOHCHv598hPNsb7K3J-22" value="" style="text;html=1;strokeColor=#666666;fillColor=#f5f5f5;align=center;verticalAlign=middle;whiteSpace=wrap;rounded=0;dashed=1;fontColor=#333333;" parent="1" vertex="1">
          <mxGeometry x="730" y="200" width="160" height="280" as="geometry" />
        </mxCell>
        <mxCell id="oqWOHCHv598hPNsb7K3J-24" value="" style="text;html=1;strokeColor=#666666;fillColor=#f5f5f5;align=center;verticalAlign=middle;whiteSpace=wrap;rounded=0;dashed=1;fontColor=#333333;" parent="1" vertex="1">
          <mxGeometry x="325" y="160" width="395" height="370" as="geometry" />
        </mxCell>
        <mxCell id="oqWOHCHv598hPNsb7K3J-1" value="Auth0" style="rounded=0;whiteSpace=wrap;html=1;fillColor=#fff2cc;strokeColor=#d6b656;" parent="1" vertex="1">
          <mxGeometry x="175" y="200" width="120" height="60" as="geometry" />
        </mxCell>
        <mxCell id="oqWOHCHv598hPNsb7K3J-12" style="edgeStyle=orthogonalEdgeStyle;rounded=1;orthogonalLoop=1;jettySize=auto;html=1;entryX=0.005;entryY=0.367;entryDx=0;entryDy=0;entryPerimeter=0;" parent="1" source="oqWOHCHv598hPNsb7K3J-3" target="oqWOHCHv598hPNsb7K3J-1" edge="1">
          <mxGeometry relative="1" as="geometry">
            <Array as="points">
              <mxPoint x="85" y="330" />
              <mxPoint x="155" y="330" />
              <mxPoint x="155" y="222" />
            </Array>
          </mxGeometry>
        </mxCell>
        <mxCell id="oqWOHCHv598hPNsb7K3J-13" style="edgeStyle=orthogonalEdgeStyle;rounded=1;orthogonalLoop=1;jettySize=auto;html=1;entryX=0;entryY=0.5;entryDx=0;entryDy=0;" parent="1" source="oqWOHCHv598hPNsb7K3J-3" target="oqWOHCHv598hPNsb7K3J-4" edge="1">
          <mxGeometry relative="1" as="geometry" />
        </mxCell>
        <mxCell id="q5LIQmY8_P4UhO7uIoxB-15" style="edgeStyle=orthogonalEdgeStyle;rounded=1;orthogonalLoop=1;jettySize=auto;html=1;entryX=0;entryY=0.5;entryDx=0;entryDy=0;entryPerimeter=0;" edge="1" parent="1" source="oqWOHCHv598hPNsb7K3J-3" target="q5LIQmY8_P4UhO7uIoxB-4">
          <mxGeometry relative="1" as="geometry">
            <Array as="points">
              <mxPoint x="85" y="550" />
              <mxPoint x="273" y="550" />
              <mxPoint x="273" y="605" />
            </Array>
          </mxGeometry>
        </mxCell>
        <mxCell id="oqWOHCHv598hPNsb7K3J-3" value="React App" style="rounded=0;whiteSpace=wrap;html=1;fillColor=#dae8fc;strokeColor=#6c8ebf;" parent="1" vertex="1">
          <mxGeometry x="25" y="400" width="120" height="60" as="geometry" />
        </mxCell>
        <mxCell id="oqWOHCHv598hPNsb7K3J-14" style="edgeStyle=orthogonalEdgeStyle;rounded=1;orthogonalLoop=1;jettySize=auto;html=1;entryX=0;entryY=0.5;entryDx=0;entryDy=0;" parent="1" source="oqWOHCHv598hPNsb7K3J-4" target="oqWOHCHv598hPNsb7K3J-6" edge="1">
          <mxGeometry relative="1" as="geometry" />
        </mxCell>
        <mxCell id="oqWOHCHv598hPNsb7K3J-29" style="edgeStyle=orthogonalEdgeStyle;rounded=0;orthogonalLoop=1;jettySize=auto;html=1;entryX=0;entryY=0.75;entryDx=0;entryDy=0;curved=1;" parent="1" source="oqWOHCHv598hPNsb7K3J-4" target="oqWOHCHv598hPNsb7K3J-7" edge="1">
          <mxGeometry relative="1" as="geometry" />
        </mxCell>
        <mxCell id="oqWOHCHv598hPNsb7K3J-4" value="Cloudfare" style="rounded=0;whiteSpace=wrap;html=1;" parent="1" vertex="1">
          <mxGeometry x="350" y="350" width="120" height="60" as="geometry" />
        </mxCell>
        <mxCell id="oqWOHCHv598hPNsb7K3J-11" style="edgeStyle=orthogonalEdgeStyle;rounded=1;orthogonalLoop=1;jettySize=auto;html=1;entryX=0.5;entryY=1;entryDx=0;entryDy=0;" parent="1" source="oqWOHCHv598hPNsb7K3J-5" target="oqWOHCHv598hPNsb7K3J-3" edge="1">
          <mxGeometry relative="1" as="geometry" />
        </mxCell>
        <mxCell id="oqWOHCHv598hPNsb7K3J-5" value="Cloudfare CND" style="rounded=0;whiteSpace=wrap;html=1;" parent="1" vertex="1">
          <mxGeometry x="350" y="450" width="120" height="60" as="geometry" />
        </mxCell>
        <mxCell id="oqWOHCHv598hPNsb7K3J-20" style="edgeStyle=orthogonalEdgeStyle;rounded=1;orthogonalLoop=1;jettySize=auto;html=1;entryX=0;entryY=0.5;entryDx=0;entryDy=0;entryPerimeter=0;exitX=0.5;exitY=1;exitDx=0;exitDy=0;" parent="1" source="oqWOHCHv598hPNsb7K3J-6" target="oqWOHCHv598hPNsb7K3J-9" edge="1">
          <mxGeometry relative="1" as="geometry">
            <Array as="points">
              <mxPoint x="620" y="580" />
            </Array>
          </mxGeometry>
        </mxCell>
        <mxCell id="q5LIQmY8_P4UhO7uIoxB-11" style="edgeStyle=orthogonalEdgeStyle;rounded=0;orthogonalLoop=1;jettySize=auto;html=1;" edge="1" parent="1" source="q5LIQmY8_P4UhO7uIoxB-18" target="q5LIQmY8_P4UhO7uIoxB-5">
          <mxGeometry relative="1" as="geometry" />
        </mxCell>
        <mxCell id="q5LIQmY8_P4UhO7uIoxB-13" style="edgeStyle=orthogonalEdgeStyle;rounded=1;orthogonalLoop=1;jettySize=auto;html=1;dashed=1;exitX=0.25;exitY=1;exitDx=0;exitDy=0;" edge="1" parent="1" source="oqWOHCHv598hPNsb7K3J-6" target="q5LIQmY8_P4UhO7uIoxB-4">
          <mxGeometry relative="1" as="geometry">
            <Array as="points">
              <mxPoint x="590" y="605" />
            </Array>
          </mxGeometry>
        </mxCell>
        <mxCell id="oqWOHCHv598hPNsb7K3J-6" value="Hydra services" style="rounded=0;whiteSpace=wrap;html=1;fillColor=#d5e8d4;strokeColor=#82b366;" parent="1" vertex="1">
          <mxGeometry x="560" y="390" width="120" height="60" as="geometry" />
        </mxCell>
        <mxCell id="oqWOHCHv598hPNsb7K3J-16" style="edgeStyle=orthogonalEdgeStyle;rounded=1;orthogonalLoop=1;jettySize=auto;html=1;entryX=1;entryY=0.5;entryDx=0;entryDy=0;dashed=1;" parent="1" source="oqWOHCHv598hPNsb7K3J-7" target="oqWOHCHv598hPNsb7K3J-1" edge="1">
          <mxGeometry relative="1" as="geometry">
            <Array as="points">
              <mxPoint x="350" y="310" />
              <mxPoint x="350" y="230" />
            </Array>
          </mxGeometry>
        </mxCell>
        <mxCell id="q5LIQmY8_P4UhO7uIoxB-10" style="edgeStyle=orthogonalEdgeStyle;rounded=0;orthogonalLoop=1;jettySize=auto;html=1;" edge="1" parent="1" source="oqWOHCHv598hPNsb7K3J-7" target="q5LIQmY8_P4UhO7uIoxB-9">
          <mxGeometry relative="1" as="geometry" />
        </mxCell>
        <mxCell id="oqWOHCHv598hPNsb7K3J-7" value="User service" style="rounded=0;whiteSpace=wrap;html=1;fillColor=#d5e8d4;strokeColor=#82b366;" parent="1" vertex="1">
          <mxGeometry x="560" y="280" width="120" height="60" as="geometry" />
        </mxCell>
        <mxCell id="oqWOHCHv598hPNsb7K3J-9" value="SNS" style="sketch=0;points=[[0,0,0],[0.25,0,0],[0.5,0,0],[0.75,0,0],[1,0,0],[0,1,0],[0.25,1,0],[0.5,1,0],[0.75,1,0],[1,1,0],[0,0.25,0],[0,0.5,0],[0,0.75,0],[1,0.25,0],[1,0.5,0],[1,0.75,0]];outlineConnect=0;fontColor=#232F3E;gradientColor=#FF4F8B;gradientDirection=north;fillColor=#BC1356;strokeColor=#ffffff;dashed=0;verticalLabelPosition=bottom;verticalAlign=top;align=center;html=1;fontSize=12;fontStyle=0;aspect=fixed;shape=mxgraph.aws4.resourceIcon;resIcon=mxgraph.aws4.sns;" parent="1" vertex="1">
          <mxGeometry x="790" y="560" width="40" height="40" as="geometry" />
        </mxCell>
        <mxCell id="oqWOHCHv598hPNsb7K3J-10" value="Sends email notifications when changes a requested" style="text;html=1;strokeColor=default;fillColor=none;align=center;verticalAlign=middle;whiteSpace=wrap;rounded=0;dashed=1;" parent="1" vertex="1">
          <mxGeometry x="745" y="500" width="130" height="60" as="geometry" />
        </mxCell>
        <mxCell id="oqWOHCHv598hPNsb7K3J-18" value="Account management, user management, granular permissions management" style="text;html=1;align=center;verticalAlign=middle;whiteSpace=wrap;rounded=0;dashed=1;fillColor=default;strokeColor=none;" parent="1" vertex="1">
          <mxGeometry x="535" y="210" width="170" height="70" as="geometry" />
        </mxCell>
        <mxCell id="oqWOHCHv598hPNsb7K3J-23" value="Private network" style="rounded=0;whiteSpace=wrap;html=1;fillColor=#f8cecc;strokeColor=#b85450;" parent="1" vertex="1">
          <mxGeometry x="745" y="210" width="130" height="30" as="geometry" />
        </mxCell>
        <mxCell id="oqWOHCHv598hPNsb7K3J-25" value="Public network" style="rounded=0;whiteSpace=wrap;html=1;fillColor=#f8cecc;strokeColor=#b85450;" parent="1" vertex="1">
          <mxGeometry x="457.5" y="170" width="130" height="30" as="geometry" />
        </mxCell>
        <mxCell id="q5LIQmY8_P4UhO7uIoxB-4" value="Project files" style="sketch=0;points=[[0,0,0],[0.25,0,0],[0.5,0,0],[0.75,0,0],[1,0,0],[0,1,0],[0.25,1,0],[0.5,1,0],[0.75,1,0],[1,1,0],[0,0.25,0],[0,0.5,0],[0,0.75,0],[1,0.25,0],[1,0.5,0],[1,0.75,0]];outlineConnect=0;fontColor=#232F3E;gradientColor=#60A337;gradientDirection=north;fillColor=#277116;strokeColor=#ffffff;dashed=0;verticalLabelPosition=bottom;verticalAlign=top;align=center;html=1;fontSize=12;fontStyle=0;aspect=fixed;shape=mxgraph.aws4.resourceIcon;resIcon=mxgraph.aws4.s3;" vertex="1" parent="1">
          <mxGeometry x="400" y="580" width="50" height="50" as="geometry" />
        </mxCell>
        <mxCell id="q5LIQmY8_P4UhO7uIoxB-5" value="Amazon&#xa;Aurora" style="sketch=0;outlineConnect=0;fontColor=#232F3E;gradientColor=none;strokeColor=#ffffff;fillColor=#232F3E;dashed=0;verticalLabelPosition=middle;verticalAlign=bottom;align=center;html=1;whiteSpace=wrap;fontSize=10;fontStyle=1;spacing=3;shape=mxgraph.aws4.productIcon;prIcon=mxgraph.aws4.aurora;" vertex="1" parent="1">
          <mxGeometry x="780" y="375" width="60" height="90" as="geometry" />
        </mxCell>
        <mxCell id="q5LIQmY8_P4UhO7uIoxB-7" value="Occasional call to the JWKS endpoint" style="text;html=1;strokeColor=default;fillColor=none;align=center;verticalAlign=middle;whiteSpace=wrap;rounded=0;dashed=1;" vertex="1" parent="1">
          <mxGeometry x="395" y="260" width="140" height="41" as="geometry" />
        </mxCell>
        <mxCell id="q5LIQmY8_P4UhO7uIoxB-8" value="Consulting &amp;amp; decomissioning" style="text;html=1;align=center;verticalAlign=middle;whiteSpace=wrap;rounded=0;dashed=1;fillColor=default;strokeColor=none;" vertex="1" parent="1">
          <mxGeometry x="535" y="360" width="170" height="30" as="geometry" />
        </mxCell>
        <mxCell id="q5LIQmY8_P4UhO7uIoxB-9" value="Amazon&#xa;Aurora" style="sketch=0;outlineConnect=0;fontColor=#232F3E;gradientColor=none;strokeColor=#ffffff;fillColor=#232F3E;dashed=0;verticalLabelPosition=middle;verticalAlign=bottom;align=center;html=1;whiteSpace=wrap;fontSize=10;fontStyle=1;spacing=3;shape=mxgraph.aws4.productIcon;prIcon=mxgraph.aws4.aurora;" vertex="1" parent="1">
          <mxGeometry x="780" y="265" width="60" height="90" as="geometry" />
        </mxCell>
        <mxCell id="q5LIQmY8_P4UhO7uIoxB-14" value="Hydra stores project files in S3 and produces signed URLs to upload and download them" style="text;html=1;strokeColor=default;fillColor=none;align=center;verticalAlign=middle;whiteSpace=wrap;rounded=0;dashed=1;" vertex="1" parent="1">
          <mxGeometry x="335" y="650" width="180" height="61" as="geometry" />
        </mxCell>
        <mxCell id="q5LIQmY8_P4UhO7uIoxB-16" value="The client uploads and downloads files directly using the signed URLs" style="text;html=1;strokeColor=default;fillColor=none;align=center;verticalAlign=middle;whiteSpace=wrap;rounded=0;dashed=1;" vertex="1" parent="1">
          <mxGeometry x="100" y="549.5" width="150" height="61" as="geometry" />
        </mxCell>
        <mxCell id="q5LIQmY8_P4UhO7uIoxB-17" value="NAT Gateway" style="outlineConnect=0;dashed=0;verticalLabelPosition=bottom;verticalAlign=top;align=center;html=1;shape=mxgraph.aws3.vpc_nat_gateway;fillColor=#F58534;gradientColor=none;" vertex="1" parent="1">
          <mxGeometry x="705" y="284" width="50" height="52" as="geometry" />
        </mxCell>
        <mxCell id="q5LIQmY8_P4UhO7uIoxB-19" value="" style="edgeStyle=orthogonalEdgeStyle;rounded=0;orthogonalLoop=1;jettySize=auto;html=1;" edge="1" parent="1" source="oqWOHCHv598hPNsb7K3J-6" target="q5LIQmY8_P4UhO7uIoxB-18">
          <mxGeometry relative="1" as="geometry">
            <mxPoint x="680" y="420" as="sourcePoint" />
            <mxPoint x="780" y="420" as="targetPoint" />
          </mxGeometry>
        </mxCell>
        <mxCell id="q5LIQmY8_P4UhO7uIoxB-18" value="NAT Gateway" style="outlineConnect=0;dashed=0;verticalLabelPosition=bottom;verticalAlign=top;align=center;html=1;shape=mxgraph.aws3.vpc_nat_gateway;fillColor=#F58534;gradientColor=none;" vertex="1" parent="1">
          <mxGeometry x="705" y="394" width="50" height="52" as="geometry" />
        </mxCell>
      </root>
    </mxGraphModel>
  </diagram>
</mxfile>
